<svg width="990" height="144" viewBox="0 0 990 144" fill="none" xmlns="http://www.w3.org/2000/svg">
<path d="M30.7579 106.672C25.8299 106.672 21.4139 105.872 17.5099 104.272C13.6059 102.672 10.4699 100.304 8.10188 97.168C5.79788 94.032 4.58188 90.256 4.45388 85.84H21.9259C22.1819 88.336 23.0459 90.256 24.5179 91.6C25.9899 92.88 27.9099 93.52 30.2779 93.52C32.7099 93.52 34.6299 92.976 36.0379 91.888C37.4459 90.736 38.1499 89.168 38.1499 87.184C38.1499 85.52 37.5739 84.144 36.4219 83.056C35.3339 81.968 33.9579 81.072 32.2939 80.368C30.6939 79.664 28.3899 78.864 25.3819 77.968C21.0299 76.624 17.4779 75.28 14.7259 73.936C11.9739 72.592 9.60588 70.608 7.62188 67.984C5.63788 65.36 4.64588 61.936 4.64588 57.712C4.64588 51.44 6.91788 46.544 11.4619 43.024C16.0059 39.44 21.9259 37.648 29.2219 37.648C36.6459 37.648 42.6299 39.44 47.1739 43.024C51.7179 46.544 54.1499 51.472 54.4699 57.808H36.7099C36.5819 55.632 35.7819 53.936 34.3099 52.72C32.8379 51.44 30.9499 50.8 28.6459 50.8C26.6619 50.8 25.0619 51.344 23.8459 52.432C22.6299 53.456 22.0219 54.96 22.0219 56.944C22.0219 59.12 23.0459 60.816 25.0939 62.032C27.1419 63.248 30.3419 64.56 34.6939 65.968C39.0459 67.44 42.5659 68.848 45.2539 70.192C48.0059 71.536 50.3739 73.488 52.3579 76.048C54.3419 78.608 55.3339 81.904 55.3339 85.936C55.3339 89.776 54.3419 93.264 52.3579 96.4C50.4379 99.536 47.6219 102.032 43.9099 103.888C40.1979 105.744 35.8139 106.672 30.7579 106.672ZM62.1724 79.12C62.1724 73.616 63.1964 68.784 65.2444 64.624C67.3564 60.464 70.2044 57.264 73.7884 55.024C77.3724 52.784 81.3724 51.664 85.7884 51.664C89.5644 51.664 92.8604 52.432 95.6764 53.968C98.5564 55.504 100.764 57.52 102.3 60.016V52.432H118.716V106H102.3V98.416C100.7 100.912 98.4604 102.928 95.5804 104.464C92.7644 106 89.4684 106.768 85.6924 106.768C81.3404 106.768 77.3724 105.648 73.7884 103.408C70.2044 101.104 67.3564 97.872 65.2444 93.712C63.1964 89.488 62.1724 84.624 62.1724 79.12ZM102.3 79.216C102.3 75.12 101.148 71.888 98.8444 69.52C96.6044 67.152 93.8524 65.968 90.5884 65.968C87.3244 65.968 84.5404 67.152 82.2364 69.52C79.9964 71.824 78.8764 75.024 78.8764 79.12C78.8764 83.216 79.9964 86.48 82.2364 88.912C84.5404 91.28 87.3244 92.464 90.5884 92.464C93.8524 92.464 96.6044 91.28 98.8444 88.912C101.148 86.544 102.3 83.312 102.3 79.216ZM198.945 51.856C205.601 51.856 210.881 53.872 214.785 57.904C218.753 61.936 220.737 67.536 220.737 74.704V106H204.417V76.912C204.417 73.456 203.489 70.8 201.633 68.944C199.841 67.024 197.345 66.064 194.145 66.064C190.945 66.064 188.417 67.024 186.561 68.944C184.769 70.8 183.873 73.456 183.873 76.912V106H167.553V76.912C167.553 73.456 166.625 70.8 164.769 68.944C162.977 67.024 160.481 66.064 157.281 66.064C154.081 66.064 151.553 67.024 149.697 68.944C147.905 70.8 147.009 73.456 147.009 76.912V106H130.593V52.432H147.009V59.152C148.673 56.912 150.849 55.152 153.537 53.872C156.225 52.528 159.265 51.856 162.657 51.856C166.689 51.856 170.273 52.72 173.409 54.448C176.609 56.176 179.105 58.64 180.897 61.84C182.753 58.896 185.281 56.496 188.481 54.64C191.681 52.784 195.169 51.856 198.945 51.856ZM248.634 60.016C250.234 57.52 252.442 55.504 255.258 53.968C258.074 52.432 261.37 51.664 265.146 51.664C269.562 51.664 273.562 52.784 277.146 55.024C280.73 57.264 283.546 60.464 285.594 64.624C287.706 68.784 288.762 73.616 288.762 79.12C288.762 84.624 287.706 89.488 285.594 93.712C283.546 97.872 280.73 101.104 277.146 103.408C273.562 105.648 269.562 106.768 265.146 106.768C261.434 106.768 258.138 106 255.258 104.464C252.442 102.928 250.234 100.944 248.634 98.512V131.536H232.218V52.432H248.634V60.016ZM272.058 79.12C272.058 75.024 270.906 71.824 268.602 69.52C266.362 67.152 263.578 65.968 260.25 65.968C256.986 65.968 254.202 67.152 251.898 69.52C249.658 71.888 248.538 75.12 248.538 79.216C248.538 83.312 249.658 86.544 251.898 88.912C254.202 91.28 256.986 92.464 260.25 92.464C263.514 92.464 266.298 91.28 268.602 88.912C270.906 86.48 272.058 83.216 272.058 79.12ZM313.79 34.96V106H297.374V34.96H313.79ZM376.182 78.352C376.182 79.888 376.086 81.488 375.894 83.152H338.742C338.998 86.48 340.054 89.04 341.91 90.832C343.83 92.56 346.166 93.424 348.918 93.424C353.014 93.424 355.862 91.696 357.462 88.24H374.934C374.038 91.76 372.406 94.928 370.038 97.744C367.734 100.56 364.822 102.768 361.302 104.368C357.782 105.968 353.846 106.768 349.494 106.768C344.246 106.768 339.574 105.648 335.478 103.408C331.382 101.168 328.182 97.968 325.878 93.808C323.574 89.648 322.422 84.784 322.422 79.216C322.422 73.648 323.542 68.784 325.782 64.624C328.086 60.464 331.286 57.264 335.382 55.024C339.478 52.784 344.182 51.664 349.494 51.664C354.678 51.664 359.286 52.752 363.318 54.928C367.35 57.104 370.486 60.208 372.726 64.24C375.03 68.272 376.182 72.976 376.182 78.352ZM359.382 74.032C359.382 71.216 358.422 68.976 356.502 67.312C354.582 65.648 352.182 64.816 349.302 64.816C346.55 64.816 344.214 65.616 342.294 67.216C340.438 68.816 339.286 71.088 338.838 74.032H359.382ZM406.635 106.768C401.963 106.768 397.803 105.968 394.155 104.368C390.507 102.768 387.627 100.592 385.515 97.84C383.403 95.024 382.219 91.888 381.963 88.432H398.187C398.379 90.288 399.243 91.792 400.779 92.944C402.315 94.096 404.203 94.672 406.443 94.672C408.491 94.672 410.059 94.288 411.147 93.52C412.299 92.688 412.875 91.632 412.875 90.352C412.875 88.816 412.075 87.696 410.475 86.992C408.875 86.224 406.283 85.392 402.699 84.496C398.859 83.6 395.659 82.672 393.099 81.712C390.539 80.688 388.331 79.12 386.475 77.008C384.619 74.832 383.691 71.92 383.691 68.272C383.691 65.2 384.523 62.416 386.187 59.92C387.915 57.36 390.411 55.344 393.675 53.872C397.003 52.4 400.939 51.664 405.483 51.664C412.203 51.664 417.483 53.328 421.323 56.656C425.227 59.984 427.467 64.4 428.043 69.904H412.875C412.619 68.048 411.787 66.576 410.379 65.488C409.035 64.4 407.243 63.856 405.003 63.856C403.083 63.856 401.611 64.24 400.587 65.008C399.563 65.712 399.051 66.704 399.051 67.984C399.051 69.52 399.851 70.672 401.451 71.44C403.115 72.208 405.675 72.976 409.131 73.744C413.099 74.768 416.331 75.792 418.827 76.816C421.323 77.776 423.499 79.376 425.355 81.616C427.275 83.792 428.267 86.736 428.331 90.448C428.331 93.584 427.435 96.4 425.643 98.896C423.915 101.328 421.387 103.248 418.059 104.656C414.795 106.064 410.987 106.768 406.635 106.768ZM500.67 94.096H475.518L471.486 106H454.302L478.686 38.608H497.694L522.078 106H504.702L500.67 94.096ZM496.446 81.424L488.094 56.752L479.838 81.424H496.446ZM582.395 52.432V106H565.979V98.704C564.315 101.072 562.043 102.992 559.163 104.464C556.347 105.872 553.211 106.576 549.755 106.576C545.659 106.576 542.043 105.68 538.907 103.888C535.771 102.032 533.339 99.376 531.611 95.92C529.883 92.464 529.019 88.4 529.019 83.728V52.432H545.339V81.52C545.339 85.104 546.267 87.888 548.123 89.872C549.979 91.856 552.475 92.848 555.611 92.848C558.811 92.848 561.339 91.856 563.195 89.872C565.051 87.888 565.979 85.104 565.979 81.52V52.432H582.395ZM590.922 79.12C590.922 73.616 591.946 68.784 593.994 64.624C596.106 60.464 598.954 57.264 602.538 55.024C606.122 52.784 610.122 51.664 614.538 51.664C618.058 51.664 621.258 52.4 624.138 53.872C627.082 55.344 629.386 57.328 631.05 59.824V34.96H647.466V106H631.05V98.32C629.514 100.88 627.306 102.928 624.426 104.464C621.61 106 618.314 106.768 614.538 106.768C610.122 106.768 606.122 105.648 602.538 103.408C598.954 101.104 596.106 97.872 593.994 93.712C591.946 89.488 590.922 84.624 590.922 79.12ZM631.05 79.216C631.05 75.12 629.898 71.888 627.594 69.52C625.354 67.152 622.602 65.968 619.338 65.968C616.074 65.968 613.29 67.152 610.986 69.52C608.746 71.824 607.626 75.024 607.626 79.12C607.626 83.216 608.746 86.48 610.986 88.912C613.29 91.28 616.074 92.464 619.338 92.464C622.602 92.464 625.354 91.28 627.594 88.912C629.898 86.544 631.05 83.312 631.05 79.216ZM667.599 46.864C664.719 46.864 662.351 46.032 660.495 44.368C658.703 42.64 657.807 40.528 657.807 38.032C657.807 35.472 658.703 33.36 660.495 31.696C662.351 29.968 664.719 29.104 667.599 29.104C670.415 29.104 672.719 29.968 674.511 31.696C676.367 33.36 677.295 35.472 677.295 38.032C677.295 40.528 676.367 42.64 674.511 44.368C672.719 46.032 670.415 46.864 667.599 46.864ZM675.759 52.432V106H659.343V52.432H675.759ZM712.039 106.768C706.791 106.768 702.055 105.648 697.831 103.408C693.671 101.168 690.375 97.968 687.943 93.808C685.575 89.648 684.391 84.784 684.391 79.216C684.391 73.712 685.607 68.88 688.039 64.72C690.471 60.496 693.799 57.264 698.023 55.024C702.247 52.784 706.983 51.664 712.231 51.664C717.479 51.664 722.215 52.784 726.439 55.024C730.663 57.264 733.991 60.496 736.423 64.72C738.855 68.88 740.071 73.712 740.071 79.216C740.071 84.72 738.823 89.584 736.327 93.808C733.895 97.968 730.535 101.168 726.247 103.408C722.023 105.648 717.287 106.768 712.039 106.768ZM712.039 92.56C715.175 92.56 717.831 91.408 720.007 89.104C722.247 86.8 723.367 83.504 723.367 79.216C723.367 74.928 722.279 71.632 720.103 69.328C717.991 67.024 715.367 65.872 712.231 65.872C709.031 65.872 706.375 67.024 704.263 69.328C702.151 71.568 701.095 74.864 701.095 79.216C701.095 83.504 702.119 86.8 704.167 89.104C706.279 91.408 708.903 92.56 712.039 92.56ZM765.196 60.016C766.732 57.52 768.94 55.504 771.82 53.968C774.7 52.432 777.996 51.664 781.708 51.664C786.124 51.664 790.124 52.784 793.708 55.024C797.292 57.264 800.108 60.464 802.156 64.624C804.268 68.784 805.324 73.616 805.324 79.12C805.324 84.624 804.268 89.488 802.156 93.712C800.108 97.872 797.292 101.104 793.708 103.408C790.124 105.648 786.124 106.768 781.708 106.768C777.932 106.768 774.636 106.032 771.82 104.56C769.004 103.024 766.796 101.008 765.196 98.512V106H748.78V34.96H765.196V60.016ZM788.62 79.12C788.62 75.024 787.468 71.824 785.164 69.52C782.924 67.152 780.14 65.968 776.812 65.968C773.548 65.968 770.764 67.152 768.46 69.52C766.22 71.888 765.1 75.12 765.1 79.216C765.1 83.312 766.22 86.544 768.46 88.912C770.764 91.28 773.548 92.464 776.812 92.464C780.076 92.464 782.86 91.28 785.164 88.912C787.468 86.48 788.62 83.216 788.62 79.12ZM838.32 106.768C833.072 106.768 828.336 105.648 824.112 103.408C819.952 101.168 816.656 97.968 814.224 93.808C811.856 89.648 810.672 84.784 810.672 79.216C810.672 73.712 811.888 68.88 814.32 64.72C816.752 60.496 820.08 57.264 824.304 55.024C828.528 52.784 833.264 51.664 838.512 51.664C843.76 51.664 848.496 52.784 852.72 55.024C856.944 57.264 860.272 60.496 862.704 64.72C865.136 68.88 866.352 73.712 866.352 79.216C866.352 84.72 865.104 89.584 862.608 93.808C860.176 97.968 856.816 101.168 852.528 103.408C848.304 105.648 843.568 106.768 838.32 106.768ZM838.32 92.56C841.456 92.56 844.112 91.408 846.288 89.104C848.528 86.8 849.648 83.504 849.648 79.216C849.648 74.928 848.56 71.632 846.384 69.328C844.272 67.024 841.648 65.872 838.512 65.872C835.312 65.872 832.656 67.024 830.544 69.328C828.432 71.568 827.376 74.864 827.376 79.216C827.376 83.504 828.4 86.8 830.448 89.104C832.56 91.408 835.184 92.56 838.32 92.56ZM899.445 106.768C894.197 106.768 889.461 105.648 885.237 103.408C881.077 101.168 877.781 97.968 875.349 93.808C872.981 89.648 871.797 84.784 871.797 79.216C871.797 73.712 873.013 68.88 875.445 64.72C877.877 60.496 881.205 57.264 885.429 55.024C889.653 52.784 894.389 51.664 899.637 51.664C904.885 51.664 909.621 52.784 913.845 55.024C918.069 57.264 921.397 60.496 923.829 64.72C926.261 68.88 927.477 73.712 927.477 79.216C927.477 84.72 926.229 89.584 923.733 93.808C921.301 97.968 917.941 101.168 913.653 103.408C909.429 105.648 904.693 106.768 899.445 106.768ZM899.445 92.56C902.581 92.56 905.237 91.408 907.413 89.104C909.653 86.8 910.773 83.504 910.773 79.216C910.773 74.928 909.685 71.632 907.509 69.328C905.397 67.024 902.773 65.872 899.637 65.872C896.437 65.872 893.781 67.024 891.669 69.328C889.557 71.568 888.501 74.864 888.501 79.216C888.501 83.504 889.525 86.8 891.573 89.104C893.685 91.408 896.309 92.56 899.445 92.56ZM968.922 106L952.602 83.536V106H936.186V34.96H952.602V74.224L968.826 52.432H989.082L966.81 79.312L989.274 106H968.922Z" fill="#19032B" fill-opacity="0.03"/>
<path d="M321.409 128.252C319.561 128.252 317.905 127.952 316.441 127.352C314.977 126.752 313.801 125.864 312.913 124.688C312.049 123.512 311.593 122.096 311.545 120.44H318.097C318.193 121.376 318.517 122.096 319.069 122.6C319.621 123.08 320.341 123.32 321.229 123.32C322.141 123.32 322.861 123.116 323.389 122.708C323.917 122.276 324.181 121.688 324.181 120.944C324.181 120.32 323.965 119.804 323.533 119.396C323.125 118.988 322.609 118.652 321.985 118.388C321.385 118.124 320.521 117.824 319.393 117.488C317.761 116.984 316.429 116.48 315.397 115.976C314.365 115.472 313.477 114.728 312.733 113.744C311.989 112.76 311.617 111.476 311.617 109.892C311.617 107.54 312.469 105.704 314.173 104.384C315.877 103.04 318.097 102.368 320.833 102.368C323.617 102.368 325.861 103.04 327.565 104.384C329.269 105.704 330.181 107.552 330.301 109.928H323.641C323.593 109.112 323.293 108.476 322.741 108.02C322.189 107.54 321.481 107.3 320.617 107.3C319.873 107.3 319.273 107.504 318.817 107.912C318.361 108.296 318.133 108.86 318.133 109.604C318.133 110.42 318.517 111.056 319.285 111.512C320.053 111.968 321.253 112.46 322.885 112.988C324.517 113.54 325.837 114.068 326.845 114.572C327.877 115.076 328.765 115.808 329.509 116.768C330.253 117.728 330.625 118.964 330.625 120.476C330.625 121.916 330.253 123.224 329.509 124.4C328.789 125.576 327.733 126.512 326.341 127.208C324.949 127.904 323.305 128.252 321.409 128.252ZM333.19 117.92C333.19 115.856 333.574 114.044 334.342 112.484C335.134 110.924 336.202 109.724 337.546 108.884C338.89 108.044 340.39 107.624 342.046 107.624C343.462 107.624 344.698 107.912 345.754 108.488C346.834 109.064 347.662 109.82 348.238 110.756V107.912H354.394V128H348.238V125.156C347.638 126.092 346.798 126.848 345.718 127.424C344.662 128 343.426 128.288 342.01 128.288C340.378 128.288 338.89 127.868 337.546 127.028C336.202 126.164 335.134 124.952 334.342 123.392C333.574 121.808 333.19 119.984 333.19 117.92ZM348.238 117.956C348.238 116.42 347.806 115.208 346.942 114.32C346.102 113.432 345.07 112.988 343.846 112.988C342.622 112.988 341.578 113.432 340.714 114.32C339.874 115.184 339.454 116.384 339.454 117.92C339.454 119.456 339.874 120.68 340.714 121.592C341.578 122.48 342.622 122.924 343.846 122.924C345.07 122.924 346.102 122.48 346.942 121.592C347.806 120.704 348.238 119.492 348.238 117.956ZM384.479 107.696C386.975 107.696 388.955 108.452 390.419 109.964C391.907 111.476 392.651 113.576 392.651 116.264V128H386.531V117.092C386.531 115.796 386.183 114.8 385.487 114.104C384.815 113.384 383.879 113.024 382.679 113.024C381.479 113.024 380.531 113.384 379.835 114.104C379.163 114.8 378.827 115.796 378.827 117.092V128H372.707V117.092C372.707 115.796 372.359 114.8 371.663 114.104C370.991 113.384 370.055 113.024 368.855 113.024C367.655 113.024 366.707 113.384 366.011 114.104C365.339 114.8 365.003 115.796 365.003 117.092V128H358.847V107.912H365.003V110.432C365.627 109.592 366.443 108.932 367.451 108.452C368.459 107.948 369.599 107.696 370.871 107.696C372.383 107.696 373.727 108.02 374.903 108.668C376.103 109.316 377.039 110.24 377.711 111.44C378.407 110.336 379.355 109.436 380.555 108.74C381.755 108.044 383.063 107.696 384.479 107.696ZM403.113 110.756C403.713 109.82 404.541 109.064 405.597 108.488C406.653 107.912 407.889 107.624 409.305 107.624C410.961 107.624 412.461 108.044 413.805 108.884C415.149 109.724 416.205 110.924 416.973 112.484C417.765 114.044 418.161 115.856 418.161 117.92C418.161 119.984 417.765 121.808 416.973 123.392C416.205 124.952 415.149 126.164 413.805 127.028C412.461 127.868 410.961 128.288 409.305 128.288C407.913 128.288 406.677 128 405.597 127.424C404.541 126.848 403.713 126.104 403.113 125.192V137.576H396.957V107.912H403.113V110.756ZM411.897 117.92C411.897 116.384 411.465 115.184 410.601 114.32C409.761 113.432 408.717 112.988 407.469 112.988C406.245 112.988 405.201 113.432 404.337 114.32C403.497 115.208 403.077 116.42 403.077 117.956C403.077 119.492 403.497 120.704 404.337 121.592C405.201 122.48 406.245 122.924 407.469 122.924C408.693 122.924 409.737 122.48 410.601 121.592C411.465 120.68 411.897 119.456 411.897 117.92ZM427.546 101.36V128H421.39V101.36H427.546ZM450.943 117.632C450.943 118.208 450.907 118.808 450.835 119.432H436.903C436.999 120.68 437.395 121.64 438.091 122.312C438.811 122.96 439.687 123.284 440.719 123.284C442.255 123.284 443.323 122.636 443.923 121.34H450.475C450.139 122.66 449.527 123.848 448.639 124.904C447.775 125.96 446.683 126.788 445.363 127.388C444.043 127.988 442.567 128.288 440.935 128.288C438.967 128.288 437.215 127.868 435.679 127.028C434.143 126.188 432.943 124.988 432.079 123.428C431.215 121.868 430.783 120.044 430.783 117.956C430.783 115.868 431.203 114.044 432.043 112.484C432.907 110.924 434.107 109.724 435.643 108.884C437.179 108.044 438.943 107.624 440.935 107.624C442.879 107.624 444.607 108.032 446.119 108.848C447.631 109.664 448.807 110.828 449.647 112.34C450.511 113.852 450.943 115.616 450.943 117.632ZM444.643 116.012C444.643 114.956 444.283 114.116 443.563 113.492C442.843 112.868 441.943 112.556 440.863 112.556C439.831 112.556 438.955 112.856 438.235 113.456C437.539 114.056 437.107 114.908 436.939 116.012H444.643ZM462.363 128.288C460.611 128.288 459.051 127.988 457.683 127.388C456.315 126.788 455.235 125.972 454.443 124.94C453.651 123.884 453.207 122.708 453.111 121.412H459.195C459.267 122.108 459.591 122.672 460.167 123.104C460.743 123.536 461.451 123.752 462.291 123.752C463.059 123.752 463.647 123.608 464.055 123.32C464.487 123.008 464.703 122.612 464.703 122.132C464.703 121.556 464.403 121.136 463.803 120.872C463.203 120.584 462.231 120.272 460.887 119.936C459.447 119.6 458.247 119.252 457.287 118.892C456.327 118.508 455.499 117.92 454.803 117.128C454.107 116.312 453.759 115.22 453.759 113.852C453.759 112.7 454.071 111.656 454.695 110.72C455.343 109.76 456.279 109.004 457.503 108.452C458.751 107.9 460.227 107.624 461.931 107.624C464.451 107.624 466.431 108.248 467.871 109.496C469.335 110.744 470.175 112.4 470.391 114.464H464.703C464.607 113.768 464.295 113.216 463.767 112.808C463.263 112.4 462.591 112.196 461.751 112.196C461.031 112.196 460.479 112.34 460.095 112.628C459.711 112.892 459.519 113.264 459.519 113.744C459.519 114.32 459.819 114.752 460.419 115.04C461.043 115.328 462.003 115.616 463.299 115.904C464.787 116.288 465.999 116.672 466.935 117.056C467.871 117.416 468.687 118.016 469.383 118.856C470.103 119.672 470.475 120.776 470.499 122.168C470.499 123.344 470.163 124.4 469.491 125.336C468.843 126.248 467.895 126.968 466.647 127.496C465.423 128.024 463.995 128.288 462.363 128.288ZM497.626 123.536H488.194L486.682 128H480.238L489.382 102.728H496.51L505.654 128H499.138L497.626 123.536ZM496.042 118.784L492.91 109.532L489.814 118.784H496.042ZM528.273 107.912V128H522.117V125.264C521.493 126.152 520.641 126.872 519.561 127.424C518.505 127.952 517.329 128.216 516.033 128.216C514.497 128.216 513.141 127.88 511.965 127.208C510.789 126.512 509.877 125.516 509.229 124.22C508.581 122.924 508.257 121.4 508.257 119.648V107.912H514.377V118.82C514.377 120.164 514.725 121.208 515.421 121.952C516.117 122.696 517.053 123.068 518.229 123.068C519.429 123.068 520.377 122.696 521.073 121.952C521.769 121.208 522.117 120.164 522.117 118.82V107.912H528.273ZM531.471 117.92C531.471 115.856 531.855 114.044 532.623 112.484C533.415 110.924 534.483 109.724 535.827 108.884C537.171 108.044 538.671 107.624 540.327 107.624C541.647 107.624 542.847 107.9 543.927 108.452C545.031 109.004 545.895 109.748 546.519 110.684V101.36H552.675V128H546.519V125.12C545.943 126.08 545.115 126.848 544.035 127.424C542.979 128 541.743 128.288 540.327 128.288C538.671 128.288 537.171 127.868 535.827 127.028C534.483 126.164 533.415 124.952 532.623 123.392C531.855 121.808 531.471 119.984 531.471 117.92ZM546.519 117.956C546.519 116.42 546.087 115.208 545.223 114.32C544.383 113.432 543.351 112.988 542.127 112.988C540.903 112.988 539.859 113.432 538.995 114.32C538.155 115.184 537.735 116.384 537.735 117.92C537.735 119.456 538.155 120.68 538.995 121.592C539.859 122.48 540.903 122.924 542.127 122.924C543.351 122.924 544.383 122.48 545.223 121.592C546.087 120.704 546.519 119.492 546.519 117.956ZM560.224 105.824C559.144 105.824 558.256 105.512 557.56 104.888C556.888 104.24 556.552 103.448 556.552 102.512C556.552 101.552 556.888 100.76 557.56 100.136C558.256 99.488 559.144 99.164 560.224 99.164C561.28 99.164 562.144 99.488 562.816 100.136C563.512 100.76 563.86 101.552 563.86 102.512C563.86 103.448 563.512 104.24 562.816 104.888C562.144 105.512 561.28 105.824 560.224 105.824ZM563.284 107.912V128H557.128V107.912H563.284ZM576.89 128.288C574.922 128.288 573.146 127.868 571.562 127.028C570.002 126.188 568.766 124.988 567.854 123.428C566.966 121.868 566.522 120.044 566.522 117.956C566.522 115.892 566.978 114.08 567.89 112.52C568.802 110.936 570.05 109.724 571.634 108.884C573.218 108.044 574.994 107.624 576.962 107.624C578.93 107.624 580.706 108.044 582.29 108.884C583.874 109.724 585.122 110.936 586.034 112.52C586.946 114.08 587.402 115.892 587.402 117.956C587.402 120.02 586.934 121.844 585.998 123.428C585.086 124.988 583.826 126.188 582.218 127.028C580.634 127.868 578.858 128.288 576.89 128.288ZM576.89 122.96C578.066 122.96 579.062 122.528 579.878 121.664C580.718 120.8 581.138 119.564 581.138 117.956C581.138 116.348 580.73 115.112 579.914 114.248C579.122 113.384 578.138 112.952 576.962 112.952C575.762 112.952 574.766 113.384 573.974 114.248C573.182 115.088 572.786 116.324 572.786 117.956C572.786 119.564 573.17 120.8 573.938 121.664C574.73 122.528 575.714 122.96 576.89 122.96ZM596.824 110.756C597.4 109.82 598.228 109.064 599.308 108.488C600.388 107.912 601.624 107.624 603.016 107.624C604.672 107.624 606.172 108.044 607.516 108.884C608.86 109.724 609.916 110.924 610.684 112.484C611.476 114.044 611.872 115.856 611.872 117.92C611.872 119.984 611.476 121.808 610.684 123.392C609.916 124.952 608.86 126.164 607.516 127.028C606.172 127.868 604.672 128.288 603.016 128.288C601.6 128.288 600.364 128.012 599.308 127.46C598.252 126.884 597.424 126.128 596.824 125.192V128H590.668V101.36H596.824V110.756ZM605.608 117.92C605.608 116.384 605.176 115.184 604.312 114.32C603.472 113.432 602.428 112.988 601.18 112.988C599.956 112.988 598.912 113.432 598.048 114.32C597.208 115.208 596.788 116.42 596.788 117.956C596.788 119.492 597.208 120.704 598.048 121.592C598.912 122.48 599.956 122.924 601.18 122.924C602.404 122.924 603.448 122.48 604.312 121.592C605.176 120.68 605.608 119.456 605.608 117.92ZM624.245 128.288C622.277 128.288 620.501 127.868 618.917 127.028C617.357 126.188 616.121 124.988 615.209 123.428C614.321 121.868 613.877 120.044 613.877 117.956C613.877 115.892 614.333 114.08 615.245 112.52C616.157 110.936 617.405 109.724 618.989 108.884C620.573 108.044 622.349 107.624 624.317 107.624C626.285 107.624 628.061 108.044 629.645 108.884C631.229 109.724 632.477 110.936 633.389 112.52C634.301 114.08 634.757 115.892 634.757 117.956C634.757 120.02 634.289 121.844 633.353 123.428C632.441 124.988 631.181 126.188 629.573 127.028C627.989 127.868 626.213 128.288 624.245 128.288ZM624.245 122.96C625.421 122.96 626.417 122.528 627.233 121.664C628.073 120.8 628.493 119.564 628.493 117.956C628.493 116.348 628.085 115.112 627.269 114.248C626.477 113.384 625.493 112.952 624.317 112.952C623.117 112.952 622.121 113.384 621.329 114.248C620.537 115.088 620.141 116.324 620.141 117.956C620.141 119.564 620.525 120.8 621.293 121.664C622.085 122.528 623.069 122.96 624.245 122.96ZM647.167 128.288C645.199 128.288 643.423 127.868 641.839 127.028C640.279 126.188 639.043 124.988 638.131 123.428C637.243 121.868 636.799 120.044 636.799 117.956C636.799 115.892 637.255 114.08 638.167 112.52C639.079 110.936 640.327 109.724 641.911 108.884C643.495 108.044 645.271 107.624 647.239 107.624C649.207 107.624 650.983 108.044 652.567 108.884C654.151 109.724 655.399 110.936 656.311 112.52C657.223 114.08 657.679 115.892 657.679 117.956C657.679 120.02 657.211 121.844 656.275 123.428C655.363 124.988 654.103 126.188 652.495 127.028C650.911 127.868 649.135 128.288 647.167 128.288ZM647.167 122.96C648.343 122.96 649.339 122.528 650.155 121.664C650.995 120.8 651.415 119.564 651.415 117.956C651.415 116.348 651.007 115.112 650.191 114.248C649.399 113.384 648.415 112.952 647.239 112.952C646.039 112.952 645.043 113.384 644.251 114.248C643.459 115.088 643.063 116.324 643.063 117.956C643.063 119.564 643.447 120.8 644.215 121.664C645.007 122.528 645.991 122.96 647.167 122.96ZM673.221 128L667.101 119.576V128H660.945V101.36H667.101V116.084L673.185 107.912H680.781L672.429 117.992L680.853 128H673.221Z" fill="#19032B"/>
</svg>
