<svg width="100" height="100" viewBox="0 0 100 100" fill="none" xmlns="http://www.w3.org/2000/svg">
<circle cx="50" cy="50" r="49.5" stroke="white"/>
<path d="M47.5439 33.0062C47.7989 33.0877 48.0592 33.1558 48.3089 33.2515C48.7517 33.4305 49.1437 33.7157 49.4502 34.082C51.2352 36.1202 53.0193 38.1593 54.8025 40.1993C54.8371 40.2392 54.8689 40.2817 54.9247 40.3507C54.5112 40.3321 54.134 40.3109 53.7569 40.2994C52.9832 40.2726 52.2093 40.3467 51.4548 40.5198C51.3636 40.5498 51.2655 40.5514 51.1733 40.5246C51.0812 40.4977 50.9994 40.4436 50.9386 40.3693C49.4015 38.821 47.8606 37.2795 46.3158 35.7448C46.175 35.6031 46.0351 35.465 45.8155 35.4508C45.6993 35.4369 45.5815 35.4585 45.4777 35.5127C45.3739 35.5669 45.2889 35.6512 45.2338 35.7545C45.1713 35.8538 45.1418 35.9703 45.1496 36.0874C45.1574 36.2045 45.202 36.3161 45.2772 36.4062C45.3472 36.4918 45.4229 36.5726 45.5039 36.6479C47.9907 39.1353 50.4782 41.6225 52.9662 44.1093C53.6568 44.7999 53.8224 45.7031 53.416 46.4999C52.8086 47.7006 51.2184 47.9166 50.2152 46.9187C48.5205 45.2376 46.8308 43.5494 45.1462 41.8542C44.9691 41.6771 44.7778 41.5 44.6078 41.3141C44.1421 40.7961 43.6144 40.7182 42.961 40.9546C41.1432 41.6133 39.3564 41.5035 37.6485 40.5783C36.9171 40.1825 36.3203 39.6282 35.9883 38.8367C35.9604 38.7639 35.9181 38.6976 35.864 38.6415C35.8098 38.5855 35.745 38.5409 35.6732 38.5105C35.6015 38.4801 35.5244 38.4645 35.4465 38.4645C35.3686 38.4646 35.2915 38.4803 35.2198 38.5108C35.1444 38.539 35.0756 38.5821 35.0172 38.6375C34.9589 38.6929 34.9123 38.7595 34.8803 38.8333C34.8482 38.9071 34.8313 38.9866 34.8306 39.067C34.8299 39.1474 34.8454 39.2272 34.8762 39.3015C34.9459 39.4768 35.0291 39.6464 35.125 39.8089C35.2083 39.9603 35.3074 40.1019 35.4234 40.2852C34.7726 40.2852 34.1599 40.2958 33.5481 40.2799C33.2825 40.2728 33.124 40.0701 33.0098 39.8434V33.4684C33.0508 33.3629 33.1134 33.2672 33.1934 33.1872C33.2734 33.1071 33.3692 33.0446 33.4746 33.0035L47.5439 33.0062Z" fill="white"/>
<path d="M41.3043 66.9938C40.9935 66.8043 40.8837 66.5343 40.8926 66.1668C40.9147 65.3159 40.9085 64.4633 40.8926 63.6115C40.8926 63.3875 40.9608 63.3459 41.1706 63.3459C49.4788 63.3512 57.7863 63.3512 66.0933 63.3459C66.3589 63.3459 66.3988 63.4256 66.3944 63.662C66.3802 64.5022 66.3775 65.3443 66.3944 66.1837C66.4014 66.5635 66.2846 66.8406 65.9295 66.9982L41.3043 66.9938Z" fill="white"/>
<path d="M66.9938 61.7495C66.784 62.0558 66.4989 62.1497 66.1261 62.1497C57.8032 62.1408 49.4774 62.1385 41.1485 62.1426C40.4659 62.1426 40.295 61.9655 40.295 61.274C40.295 60.965 40.2888 60.6542 40.295 60.3452C40.3056 59.9601 40.5234 59.7369 40.9148 59.7059C41.0131 59.698 41.1131 59.7059 41.2132 59.7059C49.506 59.7059 57.7994 59.7039 66.0934 59.6997C66.4697 59.6997 66.7769 59.7759 66.9983 60.0929L66.9938 61.7495Z" fill="white"/>
<path d="M54.4093 43.9615C56.9283 44.3254 58.8151 45.5384 60.0175 47.7121C62.4613 52.133 59.7466 57.6288 54.7591 58.4168C50.6498 59.0631 46.8142 56.0961 46.4016 51.9479C46.2086 50.0106 46.7292 48.2788 47.9024 46.7319C48.0476 46.5407 48.1291 46.5433 48.292 46.7124C48.7143 47.1507 49.1508 47.5748 49.5944 47.991C49.8786 48.2566 50.3585 48.323 50.5533 48.5957C50.7481 48.8684 50.6224 49.3227 50.7428 49.6813C51.0846 50.6924 51.761 51.3724 52.7793 51.6876C52.9679 51.746 53.0449 51.8071 53.0449 52.0161C53.0331 53.0337 53.0331 54.0514 53.0449 55.069C53.0449 55.3258 52.9811 55.3577 52.7731 55.2355C52.2684 54.9371 51.9461 54.5139 51.8513 53.9295C51.8336 53.8206 51.8257 53.7099 51.8106 53.6001C51.7584 53.2274 51.5122 53.0184 51.1581 53.0458C50.8243 53.0715 50.5905 53.3336 50.6082 53.7099C50.6622 54.8149 51.1572 55.6693 52.1046 56.2511C52.2357 56.3329 52.3752 56.4006 52.5207 56.4529C52.7934 56.5494 53.0573 56.6035 53.1352 56.9744C53.1848 57.2091 53.4531 57.3038 53.7045 57.2755C53.9701 57.2454 54.1711 57.0895 54.2198 56.8328C54.2552 56.6415 54.3438 56.599 54.5085 56.5494C55.1364 56.3648 55.6874 55.9816 56.0791 55.4573C56.4707 54.9329 56.6817 54.2957 56.6805 53.6413C56.6793 52.9868 56.466 52.3504 56.0724 51.8275C55.6789 51.3046 55.1264 50.9234 54.4979 50.7411C54.3013 50.6835 54.2411 50.6101 54.2429 50.4082C54.2544 49.5006 54.2473 48.594 54.2491 47.6864C54.2382 47.5883 54.2532 47.4892 54.2924 47.3986C54.3863 47.2216 54.4775 47.1507 54.667 47.2933C55.1097 47.6297 55.3886 48.0601 55.4479 48.6214C55.4515 48.7646 55.4781 48.9063 55.5267 49.0411C55.5768 49.1662 55.6699 49.2693 55.7891 49.3321C55.9083 49.3949 56.046 49.4132 56.1775 49.3838C56.3215 49.3588 56.4514 49.282 56.5426 49.1678C56.6338 49.0536 56.68 48.9099 56.6724 48.764C56.6665 48.2084 56.5082 47.6652 56.2146 47.1935C55.9211 46.7218 55.5037 46.3398 55.0079 46.0891C54.8901 46.0298 54.8157 45.9793 54.8308 45.8235C54.8821 45.1904 54.7334 44.599 54.4093 43.9615Z" fill="white"/>
<path d="M58.0104 58.5C60.1991 57.0957 61.5273 55.2001 61.9948 52.7395C62.8518 48.2487 59.8751 43.8269 55.3958 42.9016C54.7684 42.7693 54.1278 42.7098 53.4868 42.7245C53.4384 42.7336 53.3886 42.7317 53.3411 42.7188C53.2935 42.7059 53.2495 42.6824 53.2123 42.6502C52.8838 42.3252 52.5483 42.0082 52.1658 41.6408C52.8295 41.5042 53.5094 41.4645 54.1845 41.523C58.0405 41.8604 60.8543 43.7587 62.4915 47.2685C64.2428 51.0218 63.2777 55.5383 60.2151 58.3442C60.1372 58.4159 60.0734 58.5053 59.9415 58.5035C59.3288 58.4938 58.7134 58.5 58.0104 58.5Z" fill="white"/>
<path d="M49.2775 58.5C48.5692 58.5 47.9441 58.5 47.3198 58.5C47.1897 58.5 47.1295 58.3991 47.0542 58.3229C45.3445 56.7239 44.3094 54.768 44.0226 52.4429C43.6879 49.7707 44.3617 47.365 46.0077 45.232C46.3547 44.7814 46.3565 44.7814 46.7434 45.1701C46.8993 45.3268 47.1596 45.4782 47.1738 45.6491C47.1879 45.8199 46.9462 45.9988 46.8196 46.175C46.1294 47.1047 45.6374 48.1661 45.374 49.2936C45.1105 50.4211 45.0813 51.5907 45.2882 52.73C45.495 53.8692 45.9335 54.9539 46.5764 55.9168C47.2194 56.8798 48.0531 57.7005 49.026 58.3282L49.2775 58.5Z" fill="white"/>
<path d="M54.2712 51.97C54.6192 52.0905 54.921 52.3164 55.1345 52.6163C55.3481 52.9162 55.4629 53.2753 55.4629 53.6435C55.4629 54.0117 55.3481 54.3707 55.1345 54.6707C54.921 54.9706 54.6192 55.1965 54.2712 55.3169V51.97Z" fill="white"/>
<path d="M53.0414 48.4948C53.0414 49.1226 53.037 49.7087 53.0414 50.2948C53.0414 50.4932 52.975 50.4896 52.8289 50.4126C52.5493 50.2761 52.3099 50.0694 52.1341 49.8127C51.9583 49.556 51.852 49.2581 51.8257 48.9481C51.8115 48.8277 51.8354 48.7533 51.9736 48.7516C52.3348 48.7436 52.6651 48.6108 53.0414 48.4948Z" fill="white"/>
</svg>
