<svg width="100" height="100" viewBox="0 0 100 100" fill="none" xmlns="http://www.w3.org/2000/svg">
<circle cx="50" cy="50" r="49.5" stroke="white"/>
<path d="M66.9939 53.1471C66.8201 53.5107 66.8637 53.9126 66.8055 54.2953C66.5066 56.2698 65.8673 58.1775 64.9162 59.9334C64.8979 59.9679 64.8741 59.9993 64.8098 60.1003V59.7053C64.8098 58.3144 64.8098 56.9226 64.8098 55.5317C64.8098 54.7975 64.6399 54.1116 64.2326 53.4954C64.1436 53.3567 64.1072 53.1908 64.13 53.0276C64.3551 50.2672 63.8805 47.633 62.5485 45.2009C60.3284 41.1436 56.9479 38.5799 52.367 37.7876C47.9147 37.0221 43.9669 38.2362 40.6154 41.2409C37.5265 44.0105 35.9733 47.5235 35.8784 51.6757C35.8784 51.7852 35.8829 51.8962 35.8914 52.0064C35.9388 52.6189 35.9848 53.2007 35.5714 53.7618C35.194 54.2739 35.1304 54.9269 35.1304 55.5646C35.1304 56.9663 35.1304 58.3687 35.0776 59.7933C34.9245 59.4871 34.7645 59.1901 34.6244 58.8808C33.4999 56.3982 32.9556 53.7916 33.0934 51.0725C33.3376 46.2811 35.2598 42.2621 38.8287 39.0538C41.3105 36.8238 44.2256 35.4558 47.522 34.9544C51.2662 34.3841 54.8274 35.0194 58.1276 36.8636C62.442 39.275 65.2339 42.9036 66.4894 47.6958C66.7159 48.5713 66.8632 49.4655 66.9296 50.3674C66.9296 50.4195 66.9211 50.48 66.9939 50.4983V53.1471Z" fill="white"/>
<path d="M56.4572 58.5754C56.4572 56.445 56.4648 54.3153 56.4487 52.1848C56.4487 51.8786 56.5375 51.8258 56.8162 51.8327C57.9645 51.861 59.1127 51.7776 60.2442 52.0241C61.2394 52.2407 62.1473 52.6449 62.9029 53.3423C63.2211 53.6255 63.4735 53.9748 63.6425 54.3659C63.8115 54.7569 63.893 55.1801 63.8812 55.6059C63.8697 57.493 63.833 59.3823 63.8919 61.2708C63.9409 62.8294 63.1876 63.8323 61.9016 64.5388C60.8735 65.1053 59.752 65.3043 58.5907 65.322C57.9729 65.3296 57.3543 65.312 56.7373 65.3296C56.4992 65.3365 56.4487 65.2607 56.4495 65.0341C56.461 62.8792 56.4572 60.7273 56.4572 58.5754Z" fill="white"/>
<path d="M43.4824 58.6053C43.4824 60.7342 43.4824 62.8639 43.487 64.9936C43.487 65.2393 43.4449 65.3358 43.1693 65.3273C42.0133 65.2906 40.8513 65.3985 39.7068 65.1436C38.7239 64.9224 37.8228 64.5396 37.0711 63.8506C36.4051 63.2382 36.0537 62.488 36.0583 61.5678C36.0683 59.6043 36.079 57.6399 36.0545 55.6733C36.0399 54.476 36.5842 53.6133 37.5228 52.9488C38.6948 52.119 40.0322 51.8633 41.4315 51.838C42.0164 51.8273 42.602 51.8518 43.1861 51.8288C43.4495 51.8189 43.4923 51.9115 43.487 52.1465C43.4785 54.3015 43.4824 56.4534 43.4824 58.6053Z" fill="white"/>
</svg>
