<svg width="100" height="100" viewBox="0 0 100 100" fill="none" xmlns="http://www.w3.org/2000/svg">
<circle cx="50" cy="50" r="49.5" stroke="white"/>
<path d="M56.3252 66.9934H35.4595C35.4272 66.8879 35.3242 66.8937 35.247 66.868C33.8492 66.4098 33.0764 65.3506 33.0756 63.8631C33.0756 54.6443 33.0756 45.4254 33.0756 36.2066C33.0756 34.3646 34.3555 33.0772 36.1908 33.0747C41.0153 33.0708 45.8397 33.0683 50.6641 33.0672C50.9131 33.0672 50.9679 33.1303 50.9671 33.3744C50.9563 35.5375 50.9604 37.7016 50.9613 39.8656C50.9613 40.6583 51.324 41.0227 52.1084 41.0277C54.2608 41.0277 56.414 41.0327 58.5664 41.021C58.8279 41.021 58.92 41.0617 58.9159 41.3531C58.896 42.5783 58.9018 43.8043 58.9159 45.0295C58.92 45.1265 58.9025 45.2231 58.8648 45.3126C58.827 45.402 58.7699 45.4819 58.6976 45.5466C56.5659 47.6617 54.4374 49.7797 52.3118 51.9009C51.9242 52.286 51.5722 52.7044 51.3771 53.2124C50.9279 54.3486 50.5421 55.5089 50.2217 56.6879C49.9884 57.5852 50.259 58.4029 50.9505 59.0312C51.6419 59.6596 52.4654 59.8713 53.3743 59.5808C54.2965 59.2861 55.2096 58.9632 56.131 58.6677C56.7954 58.4567 57.3993 58.0888 57.8916 57.5952C58.165 57.3218 58.4416 57.0521 58.7217 56.7859C58.769 56.7411 58.8047 56.6414 58.9101 56.6971C58.9101 59.1234 58.9209 61.5514 58.9051 63.9793C58.8985 64.9588 58.4984 65.7657 57.7173 66.3799C57.3006 66.7012 56.8083 66.8273 56.3252 66.9934ZM44.9888 44.9963H48.4312C49.5784 44.9963 50.7255 45.0004 51.8735 44.9963C52.4712 44.9963 52.8987 44.5812 52.907 44.0209C52.9161 43.415 52.467 43.0116 51.7731 43.0116H38.2054C38.1171 43.0078 38.0286 43.0103 37.9407 43.019C37.7583 43.0363 37.5845 43.1047 37.4394 43.2165C37.2943 43.3283 37.1838 43.4788 37.1205 43.6507C36.8533 44.3314 37.3538 44.9955 38.1399 44.9971C40.4237 45.0015 42.7075 45.0021 44.9913 44.9988L44.9888 44.9963ZM42.9776 48.9732H43.176C44.7423 48.9732 46.3087 48.9732 47.875 48.9732C48.4959 48.9732 48.9292 48.5581 48.935 47.9895C48.94 47.3952 48.4951 46.9876 47.8277 46.9876C45.0918 46.9876 42.3561 46.9876 39.6207 46.9876C39.1028 46.9876 38.584 46.9818 38.066 46.9876C37.8606 46.983 37.6589 47.0425 37.4888 47.1577C37.3188 47.273 37.1889 47.4384 37.1172 47.631C36.864 48.3033 37.3505 48.9674 38.1133 48.9707C39.7344 48.9782 41.3564 48.9732 42.9776 48.9732ZM43.0083 50.9654C41.3863 50.9654 39.7649 50.9654 38.144 50.9654C37.6402 50.9654 37.2766 51.1953 37.1205 51.5987C36.8607 52.2694 37.343 52.9459 38.1017 52.9493C39.546 52.9576 40.9912 52.9493 42.4364 52.9493C44.2343 52.9493 46.0323 52.9493 47.8319 52.9493C48.2095 52.9493 48.53 52.8414 48.7524 52.5292C48.8595 52.3872 48.9242 52.2176 48.9389 52.0403C48.9536 51.863 48.9177 51.6851 48.8354 51.5273C48.6512 51.143 48.3258 50.9604 47.9032 50.9604C46.2724 50.9598 44.6408 50.9601 43.0083 50.9612V50.9654ZM42.9759 56.9278C44.6087 56.9278 46.2406 56.9278 47.8734 56.9278C48.4951 56.9278 48.9284 56.5128 48.935 55.9467C48.9408 55.3523 48.4959 54.9431 47.8294 54.9423C45.1598 54.9423 42.4906 54.9423 39.8216 54.9423C39.2406 54.9423 38.652 54.9373 38.0677 54.9423C37.863 54.9371 37.6617 54.9954 37.4915 55.1093C37.3213 55.2232 37.1905 55.3869 37.1172 55.5781C36.864 56.2513 37.3496 56.917 38.1133 56.9195C39.7328 56.9278 41.3548 56.9237 42.9759 56.9237V56.9278ZM48.9442 62.8828C49.9253 62.8828 50.9065 62.8878 51.8876 62.8828C52.4189 62.8828 52.8215 62.54 52.8937 62.0619C52.9925 61.3978 52.5426 60.8997 51.8337 60.8997C49.9262 60.8953 48.0189 60.8953 46.1119 60.8997C45.4172 60.8997 44.9673 61.2998 44.9739 61.9033C44.9797 62.4943 45.4246 62.8853 46.1003 62.8861C47.0483 62.8878 47.9962 62.8828 48.9442 62.8828Z" fill="white"/>
<path d="M66.9934 45.2636C66.6431 46.2514 65.7781 46.8175 65.1157 47.5496C65.0178 47.6584 64.9497 47.6858 64.8294 47.5646C63.9777 46.7029 63.1199 45.8452 62.2561 44.9913C62.1648 44.9008 62.1582 44.8461 62.2561 44.7547C62.7301 44.294 63.1742 43.7993 63.6731 43.3693C64.8219 42.3799 66.5094 42.9103 66.927 44.3704C66.9394 44.4136 66.9403 44.4534 66.9934 44.4667V45.2636Z" fill="white"/>
<path d="M63.6041 49.0471C63.5004 49.1583 63.458 49.2064 63.4124 49.2521C61.3306 51.3345 59.2496 53.418 57.1694 55.5026C57.0391 55.6337 56.9702 55.6039 56.8581 55.491C56.0355 54.6609 55.2137 53.8308 54.3745 53.014C54.1852 52.8306 54.2591 52.7517 54.4019 52.6089C56.3161 50.702 58.2283 48.7928 60.1386 46.8814C60.3361 46.6847 60.5096 46.3277 60.7578 46.3526C60.9728 46.3742 61.1596 46.6963 61.3538 46.8905C62.0262 47.5596 62.6952 48.2319 63.3692 48.8993C63.4418 48.9571 63.5206 49.0067 63.6041 49.0471Z" fill="white"/>
<path d="M55.8986 39.0363C54.9938 39.0363 54.089 39.0289 53.1842 39.0413C52.9642 39.0413 52.8846 39.0031 52.8854 38.7591C52.897 36.9495 52.897 35.1399 52.8854 33.3304C52.8854 33.0946 52.9642 33.0614 53.1693 33.0755C53.9587 33.1177 54.7042 33.4524 55.2602 34.0144C56.1512 34.8998 57.0407 35.7891 57.9289 36.6822C58.5077 37.2388 58.8468 37.9989 58.8744 38.8014C58.8819 39.0015 58.8287 39.0413 58.6453 39.0397C57.7297 39.0322 56.8141 39.0363 55.8986 39.0363Z" fill="white"/>
<path d="M53.0049 54.509L55.3291 56.8332C54.455 57.1212 53.581 57.4292 52.6944 57.6923C52.3433 57.7969 52.0428 57.4175 52.1632 57.0349C52.4338 56.1882 52.7268 55.349 53.0049 54.509Z" fill="white"/>
</svg>
