<svg width="100" height="100" viewBox="0 0 100 100" fill="none" xmlns="http://www.w3.org/2000/svg">
<circle cx="50" cy="50" r="49.5" stroke="white"/>
<path d="M71.7757 44.7628C71.0427 45.0672 70.2458 45.1424 69.485 45.3879C71.0279 48.2316 70.668 51.5449 68.5916 53.4773L69.3296 53.7145C69.8024 53.8781 69.8973 54.2905 69.5226 54.6161C69.3781 54.7529 69.2064 54.8577 69.0187 54.9237C67.911 55.2395 67.5101 56.0887 67.3268 57.108C67.2134 57.8668 67.2046 58.6375 67.3007 59.3987C67.3219 59.613 67.4446 59.649 67.5903 59.6932C68.2065 59.8619 68.8119 60.0679 69.4032 60.3101C69.6271 60.4073 69.8455 60.5166 70.0577 60.6373C70.2213 60.7322 70.4454 60.8304 70.4062 61.0676C70.3669 61.3049 70.1329 61.2902 69.9611 61.3327C67.8373 61.8508 65.7103 62.3662 63.5799 62.8789C57.9885 64.2315 52.3981 65.5868 46.8088 66.9449C46.5113 67.026 46.1966 67.0174 45.904 66.9203C40.7641 65.2405 35.6209 63.5699 30.4745 61.9086C30.0806 61.7795 29.7194 61.5663 29.416 61.2838C29.1126 61.0012 28.8742 60.6562 28.7172 60.2724C27.9612 58.6289 27.797 56.7743 28.2526 55.0235C28.4272 54.38 28.7654 53.7927 29.2343 53.3186C28.9218 53.2433 28.6452 53.1827 28.3736 53.1075C28.2411 53.0698 28.0758 53.0388 28.0349 52.8817C27.9859 52.6919 28.1511 52.5937 28.2706 52.5119C28.7205 52.2059 29.2359 52.0374 29.7431 51.8574C29.8626 51.8132 29.9853 51.7772 30.108 51.738C31.1405 51.4107 31.165 51.4107 31.2043 50.3357C31.2403 49.3933 31.1683 48.459 30.6545 47.618C30.4456 47.2577 30.114 46.9847 29.7202 46.849C29.4325 46.7672 29.1649 46.6262 28.9349 46.435C28.5422 46.0767 28.6322 45.6775 29.1427 45.5171C29.6957 45.3437 30.2487 45.1751 30.792 45.0083C29.2752 43.0955 29.0674 40.9177 29.5828 38.663C29.9019 37.2641 30.8198 36.3887 32.3316 36.1891C35.9836 35.7064 39.6291 35.1828 43.2779 34.674C47.0673 34.1455 50.8584 33.6268 54.6446 33.0721C55.5078 32.933 56.3916 32.9957 57.2265 33.2554C61.6214 34.6151 66.0293 35.924 70.434 37.2494C70.5289 37.2788 70.6254 37.3034 70.7187 37.3361C71.0999 37.4735 71.1948 37.8368 70.9298 38.1542C70.7844 38.3324 70.5898 38.4638 70.3702 38.5321C69.0825 38.9019 68.7503 39.9246 68.608 41.0797C68.5327 41.69 68.59 42.302 68.608 42.9139C68.5995 43.0113 68.6287 43.1082 68.6896 43.1846C68.7505 43.261 68.8384 43.3111 68.9352 43.3246C69.4375 43.4751 69.9333 43.6518 70.4307 43.8155C70.9128 43.9723 71.3647 44.2096 71.7675 44.5174L71.7757 44.7628ZM68.176 39.1997C68.0358 39.206 67.896 39.2196 67.7571 39.2406C66.1438 39.5679 64.53 39.8995 62.9156 40.2354C58.3091 41.1812 53.7027 42.1247 49.0962 43.0661C48.7935 43.1266 48.6937 43.2428 48.6888 43.5569C48.661 45.0295 48.6086 46.5168 48.5481 47.996C48.535 48.3052 48.5743 48.3805 48.9113 48.2954C51.2495 47.6965 53.5958 47.1271 55.9372 46.543C59.7954 45.5842 63.653 44.6232 67.5101 43.66C67.695 43.6142 67.8668 43.6142 67.8275 43.3328C67.6377 41.9371 67.6639 40.5512 68.1957 39.2226C68.21 39.2083 68.2226 39.1924 68.2333 39.1752C68.2333 39.1752 68.2169 39.1588 68.2087 39.1506L68.176 39.1997ZM46.3736 64.7736C46.4292 63.1374 46.4717 61.5536 46.547 59.9632C46.5634 59.618 46.4766 59.4723 46.1379 59.3709C41.1857 57.7707 36.2356 56.159 31.2877 54.5359C30.4827 54.2741 29.9035 54.5359 29.6515 55.3393C29.2177 56.7229 29.305 58.2174 29.8969 59.5411C29.9871 59.7666 30.1287 59.968 30.3105 60.1291C30.4923 60.2902 30.7093 60.4065 30.9441 60.4688C34.7041 61.5127 38.4636 62.5599 42.2225 63.6103L46.3736 64.7736ZM47.7316 45.7102H47.8576C47.8576 44.9837 47.8347 44.2572 47.8674 43.534C47.8838 43.2068 47.7725 43.0726 47.4682 42.9744C42.5116 41.371 37.5604 39.762 32.6147 38.1476C31.7966 37.8826 31.2452 38.1264 30.9785 38.9445C30.5629 40.2322 30.6512 41.5248 31.0717 42.7977C31.3074 43.5259 31.7884 43.9431 32.5591 44.1558C37.4186 45.4877 42.2667 46.8572 47.1213 48.2152C47.7005 48.3788 47.7136 48.3788 47.7283 47.762C47.7431 47.0764 47.7316 46.3925 47.7316 45.7102ZM51.9399 53.8552H52.0872C52.0872 54.6733 52.0872 55.4783 52.0872 56.2883C52.0872 56.5304 52.1625 56.5991 52.385 56.4912C52.465 56.4606 52.5477 56.4376 52.6321 56.4224C57.4965 55.0611 62.3593 53.6834 67.2319 52.3499C68.0239 52.1323 68.4984 51.6954 68.7438 50.9575C69.1292 49.8182 69.1926 48.5947 68.927 47.4217C68.7111 46.4498 68.0942 46.0456 67.317 46.2976C62.284 47.9338 57.2522 49.57 52.2214 51.2062C51.9759 51.2864 51.9334 51.4026 51.9383 51.6316C51.9498 52.3826 51.9399 53.1206 51.9399 53.8552ZM31.525 47.3431C32.1631 48.7094 32.1353 50.0936 31.9733 51.4893C31.9455 51.7232 32.006 51.8051 32.2351 51.8623C38.4647 53.4015 44.691 54.9493 50.914 56.5059C51.2527 56.591 51.2544 56.4797 51.2413 56.2146C51.1856 54.7502 51.1251 53.2858 51.1071 51.8198C51.1071 51.4402 50.9697 51.3289 50.6277 51.2569C48.4532 50.8266 46.2852 50.375 44.114 49.93L31.525 47.3431ZM66.9554 55.5422L66.7247 55.5929C64.2475 56.1001 61.7654 56.5877 59.2947 57.1195C57.2282 57.5662 55.1224 57.8427 53.1115 58.5332C52.6108 58.6968 52.1297 58.97 51.5571 58.7279C51.436 58.6771 51.2527 58.7622 51.1006 58.7933C49.9879 59.0207 48.8753 59.2563 47.7611 59.4756C47.4993 59.5263 47.3896 59.618 47.3831 59.9092C47.3536 61.3818 47.3111 62.8413 47.2407 64.3057C47.2195 64.7295 47.3209 64.7769 47.7153 64.6771C53.8565 63.1347 60.0004 61.6032 66.1471 60.0826C66.4466 60.0074 66.53 59.919 66.4924 59.6032C66.3206 58.2501 66.3238 56.9068 66.9505 55.5422H66.9554Z" fill="white"/>
</svg>
