<svg width="651" height="270" viewBox="0 0 651 270" fill="none" xmlns="http://www.w3.org/2000/svg">
<path d="M41.981 174.24H82.301V198H11.201V71.64H41.981V174.24ZM112.462 87.12C107.062 87.12 102.622 85.56 99.1423 82.44C95.7823 79.2 94.1023 75.24 94.1023 70.56C94.1023 65.76 95.7823 61.8 99.1423 58.68C102.622 55.44 107.062 53.82 112.462 53.82C117.742 53.82 122.062 55.44 125.422 58.68C128.902 61.8 130.642 65.76 130.642 70.56C130.642 75.24 128.902 79.2 125.422 82.44C122.062 85.56 117.742 87.12 112.462 87.12ZM127.762 97.56V198H96.9823V97.56H127.762ZM180.848 111.78C183.728 107.1 187.868 103.32 193.268 100.44C198.668 97.56 204.848 96.12 211.808 96.12C220.088 96.12 227.588 98.22 234.308 102.42C241.028 106.62 246.308 112.62 250.148 120.42C254.108 128.22 256.088 137.28 256.088 147.6C256.088 157.92 254.108 167.04 250.148 174.96C246.308 182.76 241.028 188.82 234.308 193.14C227.588 197.34 220.088 199.44 211.808 199.44C204.728 199.44 198.548 198.06 193.268 195.3C187.988 192.42 183.848 188.64 180.848 183.96V198H150.068V64.8H180.848V111.78ZM224.768 147.6C224.768 139.92 222.608 133.92 218.288 129.6C214.088 125.16 208.868 122.94 202.628 122.94C196.508 122.94 191.288 125.16 186.968 129.6C182.768 134.04 180.668 140.1 180.668 147.78C180.668 155.46 182.768 161.52 186.968 165.96C191.288 170.4 196.508 172.62 202.628 172.62C208.748 172.62 213.968 170.4 218.288 165.96C222.608 161.4 224.768 155.28 224.768 147.6ZM303.016 114.3C306.616 108.78 311.116 104.46 316.516 101.34C321.916 98.1 327.916 96.48 334.516 96.48V129.06H326.056C318.376 129.06 312.616 130.74 308.776 134.1C304.936 137.34 303.016 143.1 303.016 151.38V198H272.236V97.56H303.016V114.3ZM343.108 147.6C343.108 137.28 345.028 128.22 348.868 120.42C352.828 112.62 358.168 106.62 364.888 102.42C371.608 98.22 379.108 96.12 387.388 96.12C394.468 96.12 400.648 97.56 405.928 100.44C411.328 103.32 415.468 107.1 418.348 111.78V97.56H449.128V198H418.348V183.78C415.348 188.46 411.148 192.24 405.748 195.12C400.468 198 394.288 199.44 387.208 199.44C379.048 199.44 371.608 197.34 364.888 193.14C358.168 188.82 352.828 182.76 348.868 174.96C345.028 167.04 343.108 157.92 343.108 147.6ZM418.348 147.78C418.348 140.1 416.188 134.04 411.868 129.6C407.668 125.16 402.508 122.94 396.388 122.94C390.268 122.94 385.048 125.16 380.728 129.6C376.528 133.92 374.428 139.92 374.428 147.6C374.428 155.28 376.528 161.4 380.728 165.96C385.048 170.4 390.268 172.62 396.388 172.62C402.508 172.62 407.668 170.4 411.868 165.96C416.188 161.52 418.348 155.46 418.348 147.78ZM502.176 114.3C505.776 108.78 510.276 104.46 515.676 101.34C521.076 98.1 527.076 96.48 533.676 96.48V129.06H525.216C517.536 129.06 511.776 130.74 507.936 134.1C504.096 137.34 502.176 143.1 502.176 151.38V198H471.396V97.56H502.176V114.3ZM650.989 97.56L587.989 245.7H554.869L577.909 194.58L537.049 97.56H571.429L594.649 160.38L617.689 97.56H650.989Z" fill="#19032B" fill-opacity="0.15"/>
<path d="M261.455 219.664H272.207V226H253.247V192.304H261.455V219.664ZM280.73 196.432C279.29 196.432 278.106 196.016 277.178 195.184C276.282 194.32 275.834 193.264 275.834 192.016C275.834 190.736 276.282 189.68 277.178 188.848C278.106 187.984 279.29 187.552 280.73 187.552C282.138 187.552 283.29 187.984 284.186 188.848C285.114 189.68 285.578 190.736 285.578 192.016C285.578 193.264 285.114 194.32 284.186 195.184C283.29 196.016 282.138 196.432 280.73 196.432ZM284.81 199.216V226H276.602V199.216H284.81ZM299.446 203.008C300.214 201.76 301.318 200.752 302.758 199.984C304.198 199.216 305.846 198.832 307.702 198.832C309.91 198.832 311.91 199.392 313.702 200.512C315.494 201.632 316.902 203.232 317.926 205.312C318.982 207.392 319.51 209.808 319.51 212.56C319.51 215.312 318.982 217.744 317.926 219.856C316.902 221.936 315.494 223.552 313.702 224.704C311.91 225.824 309.91 226.384 307.702 226.384C305.814 226.384 304.166 226.016 302.758 225.28C301.35 224.512 300.246 223.504 299.446 222.256V226H291.238V190.48H299.446V203.008ZM311.158 212.56C311.158 210.512 310.582 208.912 309.43 207.76C308.31 206.576 306.918 205.984 305.254 205.984C303.622 205.984 302.23 206.576 301.078 207.76C299.958 208.944 299.398 210.56 299.398 212.608C299.398 214.656 299.958 216.272 301.078 217.456C302.23 218.64 303.622 219.232 305.254 219.232C306.886 219.232 308.278 218.64 309.43 217.456C310.582 216.24 311.158 214.608 311.158 212.56ZM332.504 203.68C333.464 202.208 334.664 201.056 336.104 200.224C337.544 199.36 339.144 198.928 340.904 198.928V207.616H338.648C336.6 207.616 335.064 208.064 334.04 208.96C333.016 209.824 332.504 211.36 332.504 213.568V226H324.296V199.216H332.504V203.68ZM343.676 212.56C343.676 209.808 344.188 207.392 345.212 205.312C346.268 203.232 347.692 201.632 349.484 200.512C351.276 199.392 353.276 198.832 355.484 198.832C357.372 198.832 359.02 199.216 360.428 199.984C361.868 200.752 362.972 201.76 363.74 203.008V199.216H371.948V226H363.74V222.208C362.94 223.456 361.82 224.464 360.38 225.232C358.972 226 357.324 226.384 355.436 226.384C353.26 226.384 351.276 225.824 349.484 224.704C347.692 223.552 346.268 221.936 345.212 219.856C344.188 217.744 343.676 215.312 343.676 212.56ZM363.74 212.608C363.74 210.56 363.164 208.944 362.012 207.76C360.892 206.576 359.516 205.984 357.884 205.984C356.252 205.984 354.86 206.576 353.708 207.76C352.588 208.912 352.028 210.512 352.028 212.56C352.028 214.608 352.588 216.24 353.708 217.456C354.86 218.64 356.252 219.232 357.884 219.232C359.516 219.232 360.892 218.64 362.012 217.456C363.164 216.272 363.74 214.656 363.74 212.608ZM386.574 203.68C387.534 202.208 388.734 201.056 390.174 200.224C391.614 199.36 393.214 198.928 394.974 198.928V207.616H392.718C390.67 207.616 389.134 208.064 388.11 208.96C387.086 209.824 386.574 211.36 386.574 213.568V226H378.366V199.216H386.574V203.68ZM426.737 199.216L409.937 238.72H401.105L407.249 225.088L396.353 199.216H405.521L411.713 215.968L417.857 199.216H426.737Z" fill="white"/>
</svg>
