<svg width="180" height="50" viewBox="0 0 180 50" fill="none" xmlns="http://www.w3.org/2000/svg">
<rect x="0.5" y="0.5" width="179" height="49" rx="5.5" stroke="#00A591"/>
<path d="M68.0073 23.192C68.0073 23.7573 67.8739 24.2907 67.6073 24.792C67.3406 25.2933 66.9139 25.704 66.3273 26.024C65.7406 26.3333 64.9886 26.488 64.0713 26.488H62.0553V31H60.2313V19.88H64.0713C64.9246 19.88 65.6446 20.0293 66.2313 20.328C66.8286 20.616 67.2713 21.0107 67.5593 21.512C67.8579 22.0133 68.0073 22.5733 68.0073 23.192ZM64.0713 25C64.7646 25 65.2819 24.8453 65.6233 24.536C65.9646 24.216 66.1353 23.768 66.1353 23.192C66.1353 21.976 65.4473 21.368 64.0713 21.368H62.0553V25H64.0713ZM71.5709 29.528H75.3309V31H69.7469V19.88H71.5709V29.528ZM83.5603 28.728H78.9043L78.1043 31H76.2003L80.1843 19.864H82.2963L86.2803 31H84.3603L83.5603 28.728ZM83.0483 27.24L81.2403 22.072L79.4163 27.24H83.0483ZM96.2525 19.88L92.5725 26.968V31H90.7485V26.968L87.0525 19.88H89.0845L91.6605 25.336L94.2365 19.88H96.2525ZM108.56 28.728H103.904L103.104 31H101.2L105.184 19.864H107.296L111.28 31H109.36L108.56 28.728ZM108.048 27.24L106.24 22.072L104.416 27.24H108.048ZM114.821 19.88V26.968C114.821 27.8107 115.039 28.4453 115.477 28.872C115.925 29.2987 116.543 29.512 117.333 29.512C118.133 29.512 118.751 29.2987 119.189 28.872C119.637 28.4453 119.861 27.8107 119.861 26.968V19.88H121.685V26.936C121.685 27.8427 121.487 28.6107 121.093 29.24C120.698 29.8693 120.17 30.3387 119.509 30.648C118.847 30.9573 118.117 31.112 117.317 31.112C116.517 31.112 115.786 30.9573 115.125 30.648C114.474 30.3387 113.957 29.8693 113.573 29.24C113.189 28.6107 112.997 27.8427 112.997 26.936V19.88H114.821ZM127.691 19.88C128.875 19.88 129.91 20.1093 130.795 20.568C131.691 21.016 132.379 21.6667 132.859 22.52C133.35 23.3627 133.595 24.3493 133.595 25.48C133.595 26.6107 133.35 27.592 132.859 28.424C132.379 29.256 131.691 29.896 130.795 30.344C129.91 30.7813 128.875 31 127.691 31H124.059V19.88H127.691ZM127.691 29.512C128.993 29.512 129.99 29.16 130.683 28.456C131.377 27.752 131.723 26.76 131.723 25.48C131.723 24.1893 131.377 23.1813 130.683 22.456C129.99 21.7307 128.993 21.368 127.691 21.368H125.883V29.512H127.691ZM137.227 19.88V31H135.403V19.88H137.227ZM144.694 31.112C143.659 31.112 142.705 30.872 141.83 30.392C140.966 29.9013 140.278 29.224 139.766 28.36C139.265 27.4853 139.014 26.504 139.014 25.416C139.014 24.328 139.265 23.352 139.766 22.488C140.278 21.624 140.966 20.952 141.83 20.472C142.705 19.9813 143.659 19.736 144.694 19.736C145.739 19.736 146.694 19.9813 147.558 20.472C148.433 20.952 149.121 21.624 149.622 22.488C150.123 23.352 150.374 24.328 150.374 25.416C150.374 26.504 150.123 27.4853 149.622 28.36C149.121 29.224 148.433 29.9013 147.558 30.392C146.694 30.872 145.739 31.112 144.694 31.112ZM144.694 29.528C145.43 29.528 146.086 29.3627 146.662 29.032C147.238 28.6907 147.686 28.2107 148.006 27.592C148.337 26.9627 148.502 26.2373 148.502 25.416C148.502 24.5947 148.337 23.8747 148.006 23.256C147.686 22.6373 147.238 22.1627 146.662 21.832C146.086 21.5013 145.43 21.336 144.694 21.336C143.958 21.336 143.302 21.5013 142.726 21.832C142.15 22.1627 141.697 22.6373 141.366 23.256C141.046 23.8747 140.886 24.5947 140.886 25.416C140.886 26.2373 141.046 26.9627 141.366 27.592C141.697 28.2107 142.15 28.6907 142.726 29.032C143.302 29.3627 143.958 29.528 144.694 29.528Z" fill="#00A591"/>
<path d="M33.5833 18.5817C33.5833 17.7905 34.4586 17.3127 35.1241 17.7405L45.1082 24.1588C45.7205 24.5525 45.7205 25.4475 45.1082 25.8412L35.1241 32.2595C34.4586 32.6873 33.5833 32.2095 33.5833 31.4183V18.5817Z" fill="#00A591"/>
</svg>
