<svg width="331" height="144" viewBox="0 0 331 144" fill="none" xmlns="http://www.w3.org/2000/svg">
<path d="M30.5548 106.672C25.6268 106.672 21.2108 105.872 17.3068 104.272C13.4028 102.672 10.2668 100.304 7.89875 97.168C5.59475 94.032 4.37875 90.256 4.25075 85.84H21.7228C21.9788 88.336 22.8428 90.256 24.3148 91.6C25.7868 92.88 27.7068 93.52 30.0748 93.52C32.5068 93.52 34.4268 92.976 35.8348 91.888C37.2428 90.736 37.9468 89.168 37.9468 87.184C37.9468 85.52 37.3708 84.144 36.2188 83.056C35.1308 81.968 33.7548 81.072 32.0908 80.368C30.4908 79.664 28.1868 78.864 25.1788 77.968C20.8268 76.624 17.2748 75.28 14.5228 73.936C11.7708 72.592 9.40275 70.608 7.41875 67.984C5.43475 65.36 4.44275 61.936 4.44275 57.712C4.44275 51.44 6.71475 46.544 11.2588 43.024C15.8028 39.44 21.7228 37.648 29.0188 37.648C36.4428 37.648 42.4268 39.44 46.9708 43.024C51.5148 46.544 53.9468 51.472 54.2668 57.808H36.5068C36.3788 55.632 35.5788 53.936 34.1068 52.72C32.6348 51.44 30.7468 50.8 28.4427 50.8C26.4588 50.8 24.8588 51.344 23.6428 52.432C22.4268 53.456 21.8188 54.96 21.8188 56.944C21.8188 59.12 22.8428 60.816 24.8907 62.032C26.9388 63.248 30.1388 64.56 34.4908 65.968C38.8428 67.44 42.3628 68.848 45.0508 70.192C47.8028 71.536 50.1708 73.488 52.1548 76.048C54.1388 78.608 55.1308 81.904 55.1308 85.936C55.1308 89.776 54.1388 93.264 52.1548 96.4C50.2348 99.536 47.4188 102.032 43.7068 103.888C39.9948 105.744 35.6108 106.672 30.5548 106.672ZM73.4893 46.864C70.6093 46.864 68.2413 46.032 66.3853 44.368C64.5933 42.64 63.6973 40.528 63.6973 38.032C63.6973 35.472 64.5933 33.36 66.3853 31.696C68.2413 29.968 70.6093 29.104 73.4893 29.104C76.3053 29.104 78.6093 29.968 80.4013 31.696C82.2573 33.36 83.1853 35.472 83.1853 38.032C83.1853 40.528 82.2573 42.64 80.4013 44.368C78.6093 46.032 76.3053 46.864 73.4893 46.864ZM81.6493 52.432V106H65.2333V52.432H81.6493ZM113.898 51.664C117.674 51.664 120.97 52.432 123.786 53.968C126.666 55.504 128.874 57.52 130.41 60.016V52.432H146.826V105.904C146.826 110.832 145.834 115.28 143.85 119.248C141.93 123.28 138.954 126.48 134.922 128.848C130.954 131.216 125.994 132.4 120.042 132.4C112.106 132.4 105.674 130.512 100.746 126.736C95.8178 123.024 93.0018 117.968 92.2978 111.568H108.522C109.034 113.616 110.25 115.216 112.17 116.368C114.09 117.584 116.458 118.192 119.274 118.192C122.666 118.192 125.354 117.2 127.338 115.216C129.386 113.296 130.41 110.192 130.41 105.904V98.32C128.81 100.816 126.602 102.864 123.786 104.464C120.97 106 117.674 106.768 113.898 106.768C109.482 106.768 105.482 105.648 101.898 103.408C98.3138 101.104 95.4658 97.872 93.3538 93.712C91.3058 89.488 90.2818 84.624 90.2818 79.12C90.2818 73.616 91.3058 68.784 93.3538 64.624C95.4658 60.464 98.3138 57.264 101.898 55.024C105.482 52.784 109.482 51.664 113.898 51.664ZM130.41 79.216C130.41 75.12 129.258 71.888 126.954 69.52C124.714 67.152 121.962 65.968 118.698 65.968C115.434 65.968 112.65 67.152 110.346 69.52C108.106 71.824 106.986 75.024 106.986 79.12C106.986 83.216 108.106 86.48 110.346 88.912C112.65 91.28 115.434 92.464 118.698 92.464C121.962 92.464 124.714 91.28 126.954 88.912C129.258 86.544 130.41 83.312 130.41 79.216ZM191.342 51.856C197.614 51.856 202.606 53.904 206.318 58C210.094 62.032 211.982 67.6 211.982 74.704V106H195.662V76.912C195.662 73.328 194.734 70.544 192.878 68.56C191.022 66.576 188.526 65.584 185.39 65.584C182.254 65.584 179.758 66.576 177.902 68.56C176.046 70.544 175.118 73.328 175.118 76.912V106H158.702V52.432H175.118V59.536C176.782 57.168 179.022 55.312 181.838 53.968C184.654 52.56 187.822 51.856 191.342 51.856ZM260.149 38.608V106H243.733V38.608H260.149ZM304.686 51.856C310.958 51.856 315.95 53.904 319.662 58C323.438 62.032 325.326 67.6 325.326 74.704V106H309.006V76.912C309.006 73.328 308.078 70.544 306.222 68.56C304.366 66.576 301.87 65.584 298.734 65.584C295.598 65.584 293.102 66.576 291.246 68.56C289.39 70.544 288.462 73.328 288.462 76.912V106H272.046V52.432H288.462V59.536C290.126 57.168 292.366 55.312 295.182 53.968C297.998 52.56 301.166 51.856 304.686 51.856Z" fill="#19032B" fill-opacity="0.03"/>
<path d="M114.396 128.252C112.548 128.252 110.892 127.952 109.428 127.352C107.964 126.752 106.788 125.864 105.9 124.688C105.036 123.512 104.58 122.096 104.532 120.44H111.084C111.18 121.376 111.504 122.096 112.056 122.6C112.608 123.08 113.328 123.32 114.216 123.32C115.128 123.32 115.848 123.116 116.376 122.708C116.904 122.276 117.168 121.688 117.168 120.944C117.168 120.32 116.952 119.804 116.52 119.396C116.112 118.988 115.596 118.652 114.972 118.388C114.372 118.124 113.508 117.824 112.38 117.488C110.748 116.984 109.416 116.48 108.384 115.976C107.352 115.472 106.464 114.728 105.72 113.744C104.976 112.76 104.604 111.476 104.604 109.892C104.604 107.54 105.456 105.704 107.16 104.384C108.864 103.04 111.084 102.368 113.82 102.368C116.604 102.368 118.848 103.04 120.552 104.384C122.256 105.704 123.168 107.552 123.288 109.928H116.628C116.58 109.112 116.28 108.476 115.728 108.02C115.176 107.54 114.468 107.3 113.604 107.3C112.86 107.3 112.26 107.504 111.804 107.912C111.348 108.296 111.12 108.86 111.12 109.604C111.12 110.42 111.504 111.056 112.272 111.512C113.04 111.968 114.24 112.46 115.872 112.988C117.504 113.54 118.824 114.068 119.832 114.572C120.864 115.076 121.752 115.808 122.496 116.768C123.24 117.728 123.612 118.964 123.612 120.476C123.612 121.916 123.24 123.224 122.496 124.4C121.776 125.576 120.72 126.512 119.328 127.208C117.936 127.904 116.292 128.252 114.396 128.252ZM130.496 105.824C129.416 105.824 128.528 105.512 127.832 104.888C127.16 104.24 126.824 103.448 126.824 102.512C126.824 101.552 127.16 100.76 127.832 100.136C128.528 99.488 129.416 99.164 130.496 99.164C131.552 99.164 132.416 99.488 133.088 100.136C133.784 100.76 134.132 101.552 134.132 102.512C134.132 103.448 133.784 104.24 133.088 104.888C132.416 105.512 131.552 105.824 130.496 105.824ZM133.556 107.912V128H127.4V107.912H133.556ZM145.649 107.624C147.065 107.624 148.301 107.912 149.357 108.488C150.437 109.064 151.265 109.82 151.841 110.756V107.912H157.997V127.964C157.997 129.812 157.625 131.48 156.881 132.968C156.161 134.48 155.045 135.68 153.533 136.568C152.045 137.456 150.185 137.9 147.953 137.9C144.977 137.9 142.565 137.192 140.717 135.776C138.869 134.384 137.813 132.488 137.549 130.088H143.633C143.825 130.856 144.281 131.456 145.001 131.888C145.721 132.344 146.609 132.572 147.665 132.572C148.937 132.572 149.945 132.2 150.689 131.456C151.457 130.736 151.841 129.572 151.841 127.964V125.12C151.241 126.056 150.413 126.824 149.357 127.424C148.301 128 147.065 128.288 145.649 128.288C143.993 128.288 142.493 127.868 141.149 127.028C139.805 126.164 138.737 124.952 137.945 123.392C137.177 121.808 136.793 119.984 136.793 117.92C136.793 115.856 137.177 114.044 137.945 112.484C138.737 110.924 139.805 109.724 141.149 108.884C142.493 108.044 143.993 107.624 145.649 107.624ZM151.841 117.956C151.841 116.42 151.409 115.208 150.545 114.32C149.705 113.432 148.673 112.988 147.449 112.988C146.225 112.988 145.181 113.432 144.317 114.32C143.477 115.184 143.057 116.384 143.057 117.92C143.057 119.456 143.477 120.68 144.317 121.592C145.181 122.48 146.225 122.924 147.449 122.924C148.673 122.924 149.705 122.48 150.545 121.592C151.409 120.704 151.841 119.492 151.841 117.956ZM174.691 107.696C177.043 107.696 178.915 108.464 180.307 110C181.723 111.512 182.431 113.6 182.431 116.264V128H176.311V117.092C176.311 115.748 175.963 114.704 175.267 113.96C174.571 113.216 173.635 112.844 172.459 112.844C171.283 112.844 170.347 113.216 169.651 113.96C168.955 114.704 168.607 115.748 168.607 117.092V128H162.451V107.912H168.607V110.576C169.231 109.688 170.071 108.992 171.127 108.488C172.183 107.96 173.371 107.696 174.691 107.696ZM200.493 102.728V128H194.337V102.728H200.493ZM217.195 107.696C219.547 107.696 221.419 108.464 222.811 110C224.227 111.512 224.935 113.6 224.935 116.264V128H218.815V117.092C218.815 115.748 218.467 114.704 217.771 113.96C217.075 113.216 216.139 112.844 214.963 112.844C213.787 112.844 212.851 113.216 212.155 113.96C211.459 114.704 211.111 115.748 211.111 117.092V128H204.955V107.912H211.111V110.576C211.735 109.688 212.575 108.992 213.631 108.488C214.687 107.96 215.875 107.696 217.195 107.696Z" fill="#19032B"/>
</svg>
