<svg width="480" height="24" viewBox="0 0 480 24" fill="none" xmlns="http://www.w3.org/2000/svg">
<path d="M4.688 12.416C4.688 11.328 4.93333 10.352 5.424 9.488C5.91467 8.61333 6.58133 7.93067 7.424 7.44C8.27733 6.94933 9.22133 6.704 10.256 6.704C11.472 6.704 12.5333 6.99733 13.44 7.584C14.3467 8.17067 15.008 9.00267 15.424 10.08H13.68C13.3707 9.408 12.9227 8.89067 12.336 8.528C11.76 8.16533 11.0667 7.984 10.256 7.984C9.47733 7.984 8.77867 8.16533 8.16 8.528C7.54133 8.89067 7.056 9.408 6.704 10.08C6.352 10.7413 6.176 11.52 6.176 12.416C6.176 13.3013 6.352 14.08 6.704 14.752C7.056 15.4133 7.54133 15.9253 8.16 16.288C8.77867 16.6507 9.47733 16.832 10.256 16.832C11.0667 16.832 11.76 16.656 12.336 16.304C12.9227 15.9413 13.3707 15.424 13.68 14.752H15.424C15.008 15.8187 14.3467 16.6453 13.44 17.232C12.5333 17.808 11.472 18.096 10.256 18.096C9.22133 18.096 8.27733 17.856 7.424 17.376C6.58133 16.8853 5.91467 16.208 5.424 15.344C4.93333 14.48 4.688 13.504 4.688 12.416ZM29.9723 16.832C31.3269 15.744 32.3883 14.8533 33.1562 14.16C33.9243 13.456 34.5696 12.7253 35.0923 11.968C35.6256 11.2 35.8923 10.448 35.8923 9.712C35.8923 9.01867 35.7216 8.47467 35.3803 8.08C35.0496 7.67467 34.5109 7.472 33.7643 7.472C33.0389 7.472 32.4736 7.70133 32.0683 8.16C31.6736 8.608 31.4603 9.21067 31.4283 9.968H30.0203C30.0629 8.77333 30.4256 7.85067 31.1083 7.2C31.7909 6.54933 32.6709 6.224 33.7483 6.224C34.8469 6.224 35.7163 6.528 36.3563 7.136C37.0069 7.744 37.3323 8.58133 37.3323 9.648C37.3323 10.5333 37.0656 11.3973 36.5323 12.24C36.0096 13.072 35.4123 13.808 34.7403 14.448C34.0683 15.0773 33.2096 15.8133 32.1643 16.656H37.6683V17.872H29.9723V16.832ZM39.3514 12.096C39.3514 10.2613 39.65 8.832 40.2474 7.808C40.8447 6.77333 41.89 6.256 43.3834 6.256C44.866 6.256 45.906 6.77333 46.5034 7.808C47.1007 8.832 47.3994 10.2613 47.3994 12.096C47.3994 13.9627 47.1007 15.4133 46.5034 16.448C45.906 17.4827 44.866 18 43.3834 18C41.89 18 40.8447 17.4827 40.2474 16.448C39.65 15.4133 39.3514 13.9627 39.3514 12.096ZM45.9594 12.096C45.9594 11.168 45.8954 10.384 45.7674 9.744C45.65 9.09333 45.3994 8.57067 45.0154 8.176C44.642 7.78133 44.098 7.584 43.3834 7.584C42.658 7.584 42.1034 7.78133 41.7194 8.176C41.346 8.57067 41.0954 9.09333 40.9674 9.744C40.85 10.384 40.7914 11.168 40.7914 12.096C40.7914 13.056 40.85 13.8613 40.9674 14.512C41.0954 15.1627 41.346 15.6853 41.7194 16.08C42.1034 16.4747 42.658 16.672 43.3834 16.672C44.098 16.672 44.642 16.4747 45.0154 16.08C45.3994 15.6853 45.65 15.1627 45.7674 14.512C45.8954 13.8613 45.9594 13.056 45.9594 12.096ZM49.2223 16.832C50.5769 15.744 51.6383 14.8533 52.4062 14.16C53.1743 13.456 53.8196 12.7253 54.3423 11.968C54.8756 11.2 55.1423 10.448 55.1423 9.712C55.1423 9.01867 54.9716 8.47467 54.6303 8.08C54.2996 7.67467 53.7609 7.472 53.0143 7.472C52.2889 7.472 51.7236 7.70133 51.3183 8.16C50.9236 8.608 50.7103 9.21067 50.6783 9.968H49.2703C49.3129 8.77333 49.6756 7.85067 50.3583 7.2C51.0409 6.54933 51.9209 6.224 52.9983 6.224C54.0969 6.224 54.9663 6.528 55.6063 7.136C56.2569 7.744 56.5823 8.58133 56.5823 9.648C56.5823 10.5333 56.3156 11.3973 55.7823 12.24C55.2596 13.072 54.6623 13.808 53.9903 14.448C53.3183 15.0773 52.4596 15.8133 51.4143 16.656H56.9183V17.872H49.2223V16.832ZM58.4254 16.832C59.78 15.744 60.8414 14.8533 61.6094 14.16C62.3774 13.456 63.0227 12.7253 63.5454 11.968C64.0787 11.2 64.3454 10.448 64.3454 9.712C64.3454 9.01867 64.1747 8.47467 63.8334 8.08C63.5027 7.67467 62.964 7.472 62.2174 7.472C61.492 7.472 60.9267 7.70133 60.5214 8.16C60.1267 8.608 59.9134 9.21067 59.8814 9.968H58.4734C58.516 8.77333 58.8787 7.85067 59.5614 7.2C60.244 6.54933 61.124 6.224 62.2014 6.224C63.3 6.224 64.1694 6.528 64.8094 7.136C65.46 7.744 65.7854 8.58133 65.7854 9.648C65.7854 10.5333 65.5187 11.3973 64.9854 12.24C64.4627 13.072 63.8654 13.808 63.1934 14.448C62.5214 15.0773 61.6627 15.8133 60.6174 16.656H66.1214V17.872H58.4254V16.832ZM78.9021 15.52H74.0381L73.1421 18H71.6061L75.6381 6.912H77.3181L81.3341 18H79.7981L78.9021 15.52ZM78.4861 14.336L76.4701 8.704L74.4541 14.336H78.4861ZM84.5474 6.16V18H83.0914V6.16H84.5474ZM88.4849 6.16V18H87.0289V6.16H88.4849ZM101.104 18L98.448 13.44H96.688V18H95.232V6.848H98.832C99.6747 6.848 100.384 6.992 100.96 7.28C101.547 7.568 101.984 7.95733 102.272 8.448C102.56 8.93867 102.704 9.49867 102.704 10.128C102.704 10.896 102.48 11.5733 102.032 12.16C101.595 12.7467 100.933 13.136 100.048 13.328L102.848 18H101.104ZM96.688 12.272H98.832C99.6213 12.272 100.213 12.08 100.608 11.696C101.003 11.3013 101.2 10.7787 101.2 10.128C101.2 9.46667 101.003 8.95467 100.608 8.592C100.224 8.22933 99.632 8.048 98.832 8.048H96.688V12.272ZM105.718 7.808C105.441 7.808 105.206 7.712 105.014 7.52C104.822 7.328 104.726 7.09333 104.726 6.816C104.726 6.53867 104.822 6.304 105.014 6.112C105.206 5.92 105.441 5.824 105.718 5.824C105.985 5.824 106.209 5.92 106.39 6.112C106.582 6.304 106.678 6.53867 106.678 6.816C106.678 7.09333 106.582 7.328 106.39 7.52C106.209 7.712 105.985 7.808 105.718 7.808ZM106.422 9.232V18H104.966V9.232H106.422ZM112.52 9.088C113.277 9.088 113.939 9.25333 114.504 9.584C115.08 9.91467 115.507 10.3307 115.784 10.832V9.232H117.256V18.192C117.256 18.992 117.085 19.7013 116.744 20.32C116.403 20.9493 115.912 21.44 115.272 21.792C114.643 22.144 113.907 22.32 113.064 22.32C111.912 22.32 110.952 22.048 110.184 21.504C109.416 20.96 108.963 20.2187 108.824 19.28H110.264C110.424 19.8133 110.755 20.24 111.256 20.56C111.757 20.8907 112.36 21.056 113.064 21.056C113.864 21.056 114.515 20.8053 115.016 20.304C115.528 19.8027 115.784 19.0987 115.784 18.192V16.352C115.496 16.864 115.069 17.2907 114.504 17.632C113.939 17.9733 113.277 18.144 112.52 18.144C111.741 18.144 111.032 17.952 110.392 17.568C109.763 17.184 109.267 16.6453 108.904 15.952C108.541 15.2587 108.36 14.4693 108.36 13.584C108.36 12.688 108.541 11.904 108.904 11.232C109.267 10.5493 109.763 10.0213 110.392 9.648C111.032 9.27467 111.741 9.088 112.52 9.088ZM115.784 13.6C115.784 12.9387 115.651 12.3627 115.384 11.872C115.117 11.3813 114.755 11.008 114.296 10.752C113.848 10.4853 113.352 10.352 112.808 10.352C112.264 10.352 111.768 10.48 111.32 10.736C110.872 10.992 110.515 11.3653 110.248 11.856C109.981 12.3467 109.848 12.9227 109.848 13.584C109.848 14.256 109.981 14.8427 110.248 15.344C110.515 15.8347 110.872 16.2133 111.32 16.48C111.768 16.736 112.264 16.864 112.808 16.864C113.352 16.864 113.848 16.736 114.296 16.48C114.755 16.2133 115.117 15.8347 115.384 15.344C115.651 14.8427 115.784 14.2613 115.784 13.6ZM124.068 9.072C124.73 9.072 125.327 9.216 125.86 9.504C126.394 9.78133 126.81 10.2027 127.108 10.768C127.418 11.3333 127.572 12.0213 127.572 12.832V18H126.132V13.04C126.132 12.1653 125.914 11.4987 125.476 11.04C125.039 10.5707 124.442 10.336 123.684 10.336C122.916 10.336 122.303 10.576 121.844 11.056C121.396 11.536 121.172 12.2347 121.172 13.152V18H119.716V6.16H121.172V10.48C121.46 10.032 121.855 9.68533 122.356 9.44C122.868 9.19467 123.439 9.072 124.068 9.072ZM131.727 10.432V15.6C131.727 16.0267 131.817 16.3307 131.999 16.512C132.18 16.6827 132.495 16.768 132.943 16.768H134.015V18H132.703C131.892 18 131.284 17.8133 130.879 17.44C130.473 17.0667 130.271 16.4533 130.271 15.6V10.432H129.135V9.232H130.271V7.024H131.727V9.232H134.015V10.432H131.727ZM138.883 18.144C138.211 18.144 137.608 18.032 137.075 17.808C136.542 17.5733 136.12 17.2533 135.811 16.848C135.502 16.432 135.331 15.9573 135.299 15.424H136.803C136.846 15.8613 137.048 16.2187 137.411 16.496C137.784 16.7733 138.27 16.912 138.867 16.912C139.422 16.912 139.859 16.7893 140.179 16.544C140.499 16.2987 140.659 15.9893 140.659 15.616C140.659 15.232 140.488 14.9493 140.147 14.768C139.806 14.576 139.278 14.3893 138.563 14.208C137.912 14.0373 137.379 13.8667 136.963 13.696C136.558 13.5147 136.206 13.2533 135.907 12.912C135.619 12.56 135.475 12.1013 135.475 11.536C135.475 11.088 135.608 10.6773 135.875 10.304C136.142 9.93067 136.52 9.63733 137.011 9.424C137.502 9.2 138.062 9.088 138.691 9.088C139.662 9.088 140.446 9.33333 141.043 9.824C141.64 10.3147 141.96 10.9867 142.003 11.84H140.547C140.515 11.3813 140.328 11.0133 139.987 10.736C139.656 10.4587 139.208 10.32 138.643 10.32C138.12 10.32 137.704 10.432 137.395 10.656C137.086 10.88 136.931 11.1733 136.931 11.536C136.931 11.824 137.022 12.064 137.203 12.256C137.395 12.4373 137.63 12.5867 137.907 12.704C138.195 12.8107 138.59 12.9333 139.091 13.072C139.72 13.2427 140.232 13.4133 140.627 13.584C141.022 13.744 141.358 13.9893 141.635 14.32C141.923 14.6507 142.072 15.0827 142.083 15.616C142.083 16.096 141.95 16.528 141.683 16.912C141.416 17.296 141.038 17.6 140.547 17.824C140.067 18.0373 139.512 18.144 138.883 18.144ZM154.276 18L151.62 13.44H149.86V18H148.404V6.848H152.004C152.847 6.848 153.556 6.992 154.132 7.28C154.719 7.568 155.156 7.95733 155.444 8.448C155.732 8.93867 155.876 9.49867 155.876 10.128C155.876 10.896 155.652 11.5733 155.204 12.16C154.767 12.7467 154.105 13.136 153.22 13.328L156.02 18H154.276ZM149.86 12.272H152.004C152.793 12.272 153.385 12.08 153.78 11.696C154.175 11.3013 154.372 10.7787 154.372 10.128C154.372 9.46667 154.175 8.95467 153.78 8.592C153.396 8.22933 152.804 8.048 152.004 8.048H149.86V12.272ZM166.138 13.28C166.138 13.5573 166.122 13.8507 166.09 14.16H159.082C159.136 15.024 159.429 15.7013 159.962 16.192C160.506 16.672 161.162 16.912 161.93 16.912C162.56 16.912 163.082 16.768 163.498 16.48C163.925 16.1813 164.224 15.7867 164.394 15.296H165.962C165.728 16.1387 165.258 16.8267 164.554 17.36C163.85 17.8827 162.976 18.144 161.93 18.144C161.098 18.144 160.352 17.9573 159.69 17.584C159.04 17.2107 158.528 16.6827 158.154 16C157.781 15.3067 157.594 14.5067 157.594 13.6C157.594 12.6933 157.776 11.8987 158.138 11.216C158.501 10.5333 159.008 10.0107 159.658 9.648C160.32 9.27467 161.077 9.088 161.93 9.088C162.762 9.088 163.498 9.26933 164.138 9.632C164.778 9.99467 165.269 10.496 165.61 11.136C165.962 11.7653 166.138 12.48 166.138 13.28ZM164.634 12.976C164.634 12.4213 164.512 11.9467 164.266 11.552C164.021 11.1467 163.685 10.8427 163.258 10.64C162.842 10.4267 162.378 10.32 161.866 10.32C161.13 10.32 160.501 10.5547 159.978 11.024C159.466 11.4933 159.173 12.144 159.098 12.976H164.634ZM171.164 18.144C170.492 18.144 169.889 18.032 169.356 17.808C168.823 17.5733 168.401 17.2533 168.092 16.848C167.783 16.432 167.612 15.9573 167.58 15.424H169.084C169.127 15.8613 169.329 16.2187 169.692 16.496C170.065 16.7733 170.551 16.912 171.148 16.912C171.703 16.912 172.14 16.7893 172.46 16.544C172.78 16.2987 172.94 15.9893 172.94 15.616C172.94 15.232 172.769 14.9493 172.428 14.768C172.087 14.576 171.559 14.3893 170.844 14.208C170.193 14.0373 169.66 13.8667 169.244 13.696C168.839 13.5147 168.487 13.2533 168.188 12.912C167.9 12.56 167.756 12.1013 167.756 11.536C167.756 11.088 167.889 10.6773 168.156 10.304C168.423 9.93067 168.801 9.63733 169.292 9.424C169.783 9.2 170.343 9.088 170.972 9.088C171.943 9.088 172.727 9.33333 173.324 9.824C173.921 10.3147 174.241 10.9867 174.284 11.84H172.828C172.796 11.3813 172.609 11.0133 172.268 10.736C171.937 10.4587 171.489 10.32 170.924 10.32C170.401 10.32 169.985 10.432 169.676 10.656C169.367 10.88 169.212 11.1733 169.212 11.536C169.212 11.824 169.303 12.064 169.484 12.256C169.676 12.4373 169.911 12.5867 170.188 12.704C170.476 12.8107 170.871 12.9333 171.372 13.072C172.001 13.2427 172.513 13.4133 172.908 13.584C173.303 13.744 173.639 13.9893 173.916 14.32C174.204 14.6507 174.353 15.0827 174.364 15.616C174.364 16.096 174.231 16.528 173.964 16.912C173.697 17.296 173.319 17.6 172.828 17.824C172.348 18.0373 171.793 18.144 171.164 18.144ZM184.42 13.28C184.42 13.5573 184.404 13.8507 184.372 14.16H177.364C177.417 15.024 177.71 15.7013 178.244 16.192C178.788 16.672 179.444 16.912 180.212 16.912C180.841 16.912 181.364 16.768 181.78 16.48C182.206 16.1813 182.505 15.7867 182.676 15.296H184.244C184.009 16.1387 183.54 16.8267 182.836 17.36C182.132 17.8827 181.257 18.144 180.212 18.144C179.38 18.144 178.633 17.9573 177.972 17.584C177.321 17.2107 176.809 16.6827 176.436 16C176.062 15.3067 175.876 14.5067 175.876 13.6C175.876 12.6933 176.057 11.8987 176.42 11.216C176.782 10.5333 177.289 10.0107 177.94 9.648C178.601 9.27467 179.358 9.088 180.212 9.088C181.044 9.088 181.78 9.26933 182.42 9.632C183.06 9.99467 183.55 10.496 183.892 11.136C184.244 11.7653 184.42 12.48 184.42 13.28ZM182.916 12.976C182.916 12.4213 182.793 11.9467 182.548 11.552C182.302 11.1467 181.966 10.8427 181.54 10.64C181.124 10.4267 180.66 10.32 180.148 10.32C179.412 10.32 178.782 10.5547 178.26 11.024C177.748 11.4933 177.454 12.144 177.38 12.976H182.916ZM187.797 10.656C188.053 10.1547 188.416 9.76533 188.885 9.488C189.365 9.21067 189.947 9.072 190.629 9.072V10.576H190.245C188.613 10.576 187.797 11.4613 187.797 13.232V18H186.341V9.232H187.797V10.656ZM195.574 16.656L198.294 9.232H199.846L196.406 18H194.71L191.27 9.232H192.838L195.574 16.656ZM209.279 13.28C209.279 13.5573 209.263 13.8507 209.231 14.16H202.223C202.276 15.024 202.57 15.7013 203.103 16.192C203.647 16.672 204.303 16.912 205.071 16.912C205.7 16.912 206.223 16.768 206.639 16.48C207.066 16.1813 207.364 15.7867 207.535 15.296H209.103C208.868 16.1387 208.399 16.8267 207.695 17.36C206.991 17.8827 206.116 18.144 205.071 18.144C204.239 18.144 203.492 17.9573 202.831 17.584C202.18 17.2107 201.668 16.6827 201.295 16C200.922 15.3067 200.735 14.5067 200.735 13.6C200.735 12.6933 200.916 11.8987 201.279 11.216C201.642 10.5333 202.148 10.0107 202.799 9.648C203.46 9.27467 204.218 9.088 205.071 9.088C205.903 9.088 206.639 9.26933 207.279 9.632C207.919 9.99467 208.41 10.496 208.751 11.136C209.103 11.7653 209.279 12.48 209.279 13.28ZM207.775 12.976C207.775 12.4213 207.652 11.9467 207.407 11.552C207.162 11.1467 206.826 10.8427 206.399 10.64C205.983 10.4267 205.519 10.32 205.007 10.32C204.271 10.32 203.642 10.5547 203.119 11.024C202.607 11.4933 202.314 12.144 202.239 12.976H207.775ZM210.657 13.584C210.657 12.688 210.838 11.904 211.201 11.232C211.563 10.5493 212.059 10.0213 212.689 9.648C213.329 9.27467 214.043 9.088 214.833 9.088C215.515 9.088 216.15 9.248 216.737 9.568C217.323 9.87733 217.771 10.288 218.081 10.8V6.16H219.553V18H218.081V16.352C217.793 16.8747 217.366 17.3067 216.801 17.648C216.235 17.9787 215.574 18.144 214.817 18.144C214.038 18.144 213.329 17.952 212.689 17.568C212.059 17.184 211.563 16.6453 211.201 15.952C210.838 15.2587 210.657 14.4693 210.657 13.584ZM218.081 13.6C218.081 12.9387 217.947 12.3627 217.681 11.872C217.414 11.3813 217.051 11.008 216.593 10.752C216.145 10.4853 215.649 10.352 215.105 10.352C214.561 10.352 214.065 10.48 213.617 10.736C213.169 10.992 212.811 11.3653 212.545 11.856C212.278 12.3467 212.145 12.9227 212.145 13.584C212.145 14.256 212.278 14.8427 212.545 15.344C212.811 15.8347 213.169 16.2133 213.617 16.48C214.065 16.736 214.561 16.864 215.105 16.864C215.649 16.864 216.145 16.736 216.593 16.48C217.051 16.2133 217.414 15.8347 217.681 15.344C217.947 14.8427 218.081 14.2613 218.081 13.6ZM222.477 18.096C222.2 18.096 221.965 18 221.773 17.808C221.581 17.616 221.485 17.3813 221.485 17.104C221.485 16.8267 221.581 16.592 221.773 16.4C221.965 16.208 222.2 16.112 222.477 16.112C222.744 16.112 222.968 16.208 223.149 16.4C223.341 16.592 223.437 16.8267 223.437 17.104C223.437 17.3813 223.341 17.616 223.149 17.808C222.968 18 222.744 18.096 222.477 18.096ZM236.502 6.848V8.032H233.462V18H232.006V8.032H228.95V6.848H236.502ZM246.295 13.28C246.295 13.5573 246.279 13.8507 246.247 14.16H239.239C239.292 15.024 239.585 15.7013 240.119 16.192C240.663 16.672 241.319 16.912 242.087 16.912C242.716 16.912 243.239 16.768 243.655 16.48C244.081 16.1813 244.38 15.7867 244.551 15.296H246.119C245.884 16.1387 245.415 16.8267 244.711 17.36C244.007 17.8827 243.132 18.144 242.087 18.144C241.255 18.144 240.508 17.9573 239.847 17.584C239.196 17.2107 238.684 16.6827 238.311 16C237.937 15.3067 237.751 14.5067 237.751 13.6C237.751 12.6933 237.932 11.8987 238.295 11.216C238.657 10.5333 239.164 10.0107 239.815 9.648C240.476 9.27467 241.233 9.088 242.087 9.088C242.919 9.088 243.655 9.26933 244.295 9.632C244.935 9.99467 245.425 10.496 245.767 11.136C246.119 11.7653 246.295 12.48 246.295 13.28ZM244.791 12.976C244.791 12.4213 244.668 11.9467 244.423 11.552C244.177 11.1467 243.841 10.8427 243.415 10.64C242.999 10.4267 242.535 10.32 242.023 10.32C241.287 10.32 240.657 10.5547 240.135 11.024C239.623 11.4933 239.329 12.144 239.255 12.976H244.791ZM249.672 10.656C249.928 10.1547 250.291 9.76533 250.76 9.488C251.24 9.21067 251.822 9.072 252.504 9.072V10.576H252.12C250.488 10.576 249.672 11.4613 249.672 13.232V18H248.216V9.232H249.672V10.656ZM264.729 9.072C265.412 9.072 266.02 9.216 266.553 9.504C267.086 9.78133 267.508 10.2027 267.817 10.768C268.126 11.3333 268.281 12.0213 268.281 12.832V18H266.841V13.04C266.841 12.1653 266.622 11.4987 266.185 11.04C265.758 10.5707 265.177 10.336 264.441 10.336C263.684 10.336 263.081 10.5813 262.633 11.072C262.185 11.552 261.961 12.2507 261.961 13.168V18H260.521V13.04C260.521 12.1653 260.302 11.4987 259.865 11.04C259.438 10.5707 258.857 10.336 258.121 10.336C257.364 10.336 256.761 10.5813 256.313 11.072C255.865 11.552 255.641 12.2507 255.641 13.168V18H254.185V9.232H255.641V10.496C255.929 10.0373 256.313 9.68533 256.793 9.44C257.284 9.19467 257.822 9.072 258.409 9.072C259.145 9.072 259.796 9.23733 260.361 9.568C260.926 9.89867 261.348 10.384 261.625 11.024C261.87 10.4053 262.276 9.92533 262.841 9.584C263.406 9.24267 264.036 9.072 264.729 9.072ZM273.774 18.144C273.102 18.144 272.499 18.032 271.966 17.808C271.432 17.5733 271.011 17.2533 270.702 16.848C270.392 16.432 270.222 15.9573 270.19 15.424H271.694C271.736 15.8613 271.939 16.2187 272.302 16.496C272.675 16.7733 273.16 16.912 273.758 16.912C274.312 16.912 274.75 16.7893 275.07 16.544C275.39 16.2987 275.55 15.9893 275.55 15.616C275.55 15.232 275.379 14.9493 275.038 14.768C274.696 14.576 274.168 14.3893 273.454 14.208C272.803 14.0373 272.27 13.8667 271.854 13.696C271.448 13.5147 271.096 13.2533 270.798 12.912C270.51 12.56 270.366 12.1013 270.366 11.536C270.366 11.088 270.499 10.6773 270.766 10.304C271.032 9.93067 271.411 9.63733 271.902 9.424C272.392 9.2 272.952 9.088 273.582 9.088C274.552 9.088 275.336 9.33333 275.934 9.824C276.531 10.3147 276.851 10.9867 276.894 11.84H275.438C275.406 11.3813 275.219 11.0133 274.878 10.736C274.547 10.4587 274.099 10.32 273.534 10.32C273.011 10.32 272.595 10.432 272.286 10.656C271.976 10.88 271.822 11.1733 271.822 11.536C271.822 11.824 271.912 12.064 272.094 12.256C272.286 12.4373 272.52 12.5867 272.798 12.704C273.086 12.8107 273.48 12.9333 273.982 13.072C274.611 13.2427 275.123 13.4133 275.518 13.584C275.912 13.744 276.248 13.9893 276.526 14.32C276.814 14.6507 276.963 15.0827 276.974 15.616C276.974 16.096 276.84 16.528 276.574 16.912C276.307 17.296 275.928 17.6 275.438 17.824C274.958 18.0373 274.403 18.144 273.774 18.144ZM287.119 18.144C286.297 18.144 285.551 17.9573 284.879 17.584C284.217 17.2107 283.695 16.6827 283.311 16C282.937 15.3067 282.751 14.5067 282.751 13.6C282.751 12.704 282.943 11.9147 283.327 11.232C283.721 10.5387 284.255 10.0107 284.927 9.648C285.599 9.27467 286.351 9.088 287.183 9.088C288.015 9.088 288.767 9.27467 289.439 9.648C290.111 10.0107 290.639 10.5333 291.023 11.216C291.417 11.8987 291.615 12.6933 291.615 13.6C291.615 14.5067 291.412 15.3067 291.007 16C290.612 16.6827 290.073 17.2107 289.391 17.584C288.708 17.9573 287.951 18.144 287.119 18.144ZM287.119 16.864C287.641 16.864 288.132 16.7413 288.591 16.496C289.049 16.2507 289.417 15.8827 289.695 15.392C289.983 14.9013 290.127 14.304 290.127 13.6C290.127 12.896 289.988 12.2987 289.711 11.808C289.433 11.3173 289.071 10.9547 288.623 10.72C288.175 10.4747 287.689 10.352 287.167 10.352C286.633 10.352 286.143 10.4747 285.695 10.72C285.257 10.9547 284.905 11.3173 284.639 11.808C284.372 12.2987 284.239 12.896 284.239 13.6C284.239 14.3147 284.367 14.9173 284.623 15.408C284.889 15.8987 285.241 16.2667 285.679 16.512C286.116 16.7467 286.596 16.864 287.119 16.864ZM297.097 10.432H295.257V18H293.801V10.432H292.665V9.232H293.801V8.608C293.801 7.62667 294.052 6.912 294.553 6.464C295.065 6.00533 295.881 5.776 297.001 5.776V6.992C296.361 6.992 295.908 7.12 295.641 7.376C295.385 7.62133 295.257 8.032 295.257 8.608V9.232H297.097V10.432ZM304.484 6.848V13.904C304.484 14.896 304.724 15.632 305.204 16.112C305.695 16.592 306.372 16.832 307.236 16.832C308.089 16.832 308.756 16.592 309.236 16.112C309.727 15.632 309.972 14.896 309.972 13.904V6.848H311.428V13.888C311.428 14.816 311.241 15.6 310.868 16.24C310.495 16.8693 309.988 17.3387 309.348 17.648C308.719 17.9573 308.009 18.112 307.22 18.112C306.431 18.112 305.716 17.9573 305.076 17.648C304.447 17.3387 303.945 16.8693 303.572 16.24C303.209 15.6 303.028 14.816 303.028 13.888V6.848H304.484ZM316.961 18.144C316.289 18.144 315.686 18.032 315.153 17.808C314.62 17.5733 314.198 17.2533 313.889 16.848C313.58 16.432 313.409 15.9573 313.377 15.424H314.881C314.924 15.8613 315.126 16.2187 315.489 16.496C315.862 16.7733 316.348 16.912 316.945 16.912C317.5 16.912 317.937 16.7893 318.257 16.544C318.577 16.2987 318.737 15.9893 318.737 15.616C318.737 15.232 318.566 14.9493 318.225 14.768C317.884 14.576 317.356 14.3893 316.641 14.208C315.99 14.0373 315.457 13.8667 315.041 13.696C314.636 13.5147 314.284 13.2533 313.985 12.912C313.697 12.56 313.553 12.1013 313.553 11.536C313.553 11.088 313.686 10.6773 313.953 10.304C314.22 9.93067 314.598 9.63733 315.089 9.424C315.58 9.2 316.14 9.088 316.769 9.088C317.74 9.088 318.524 9.33333 319.121 9.824C319.718 10.3147 320.038 10.9867 320.081 11.84H318.625C318.593 11.3813 318.406 11.0133 318.065 10.736C317.734 10.4587 317.286 10.32 316.721 10.32C316.198 10.32 315.782 10.432 315.473 10.656C315.164 10.88 315.009 11.1733 315.009 11.536C315.009 11.824 315.1 12.064 315.281 12.256C315.473 12.4373 315.708 12.5867 315.985 12.704C316.273 12.8107 316.668 12.9333 317.169 13.072C317.798 13.2427 318.31 13.4133 318.705 13.584C319.1 13.744 319.436 13.9893 319.713 14.32C320.001 14.6507 320.15 15.0827 320.161 15.616C320.161 16.096 320.028 16.528 319.761 16.912C319.494 17.296 319.116 17.6 318.625 17.824C318.145 18.0373 317.59 18.144 316.961 18.144ZM330.216 13.28C330.216 13.5573 330.2 13.8507 330.168 14.16H323.16C323.214 15.024 323.507 15.7013 324.04 16.192C324.584 16.672 325.24 16.912 326.008 16.912C326.638 16.912 327.16 16.768 327.576 16.48C328.003 16.1813 328.302 15.7867 328.472 15.296H330.04C329.806 16.1387 329.336 16.8267 328.632 17.36C327.928 17.8827 327.054 18.144 326.008 18.144C325.176 18.144 324.43 17.9573 323.768 17.584C323.118 17.2107 322.606 16.6827 322.232 16C321.859 15.3067 321.672 14.5067 321.672 13.6C321.672 12.6933 321.854 11.8987 322.216 11.216C322.579 10.5333 323.086 10.0107 323.736 9.648C324.398 9.27467 325.155 9.088 326.008 9.088C326.84 9.088 327.576 9.26933 328.216 9.632C328.856 9.99467 329.347 10.496 329.688 11.136C330.04 11.7653 330.216 12.48 330.216 13.28ZM328.712 12.976C328.712 12.4213 328.59 11.9467 328.344 11.552C328.099 11.1467 327.763 10.8427 327.336 10.64C326.92 10.4267 326.456 10.32 325.944 10.32C325.208 10.32 324.579 10.5547 324.056 11.024C323.544 11.4933 323.251 12.144 323.176 12.976H328.712ZM335.86 13.584C335.86 12.688 336.041 11.904 336.404 11.232C336.767 10.5493 337.263 10.0213 337.892 9.648C338.532 9.27467 339.241 9.088 340.02 9.088C340.788 9.088 341.455 9.25333 342.02 9.584C342.585 9.91467 343.007 10.3307 343.284 10.832V9.232H344.756V18H343.284V16.368C342.996 16.88 342.564 17.3067 341.988 17.648C341.423 17.9787 340.761 18.144 340.004 18.144C339.225 18.144 338.521 17.952 337.892 17.568C337.263 17.184 336.767 16.6453 336.404 15.952C336.041 15.2587 335.86 14.4693 335.86 13.584ZM343.284 13.6C343.284 12.9387 343.151 12.3627 342.884 11.872C342.617 11.3813 342.255 11.008 341.796 10.752C341.348 10.4853 340.852 10.352 340.308 10.352C339.764 10.352 339.268 10.48 338.82 10.736C338.372 10.992 338.015 11.3653 337.748 11.856C337.481 12.3467 337.348 12.9227 337.348 13.584C337.348 14.256 337.481 14.8427 337.748 15.344C338.015 15.8347 338.372 16.2133 338.82 16.48C339.268 16.736 339.764 16.864 340.308 16.864C340.852 16.864 341.348 16.736 341.796 16.48C342.255 16.2133 342.617 15.8347 342.884 15.344C343.151 14.8427 343.284 14.2613 343.284 13.6ZM351.488 9.072C352.555 9.072 353.419 9.39733 354.08 10.048C354.742 10.688 355.072 11.616 355.072 12.832V18H353.632V13.04C353.632 12.1653 353.414 11.4987 352.976 11.04C352.539 10.5707 351.942 10.336 351.184 10.336C350.416 10.336 349.803 10.576 349.344 11.056C348.896 11.536 348.672 12.2347 348.672 13.152V18H347.216V9.232H348.672V10.48C348.96 10.032 349.35 9.68533 349.84 9.44C350.342 9.19467 350.891 9.072 351.488 9.072ZM356.907 13.584C356.907 12.688 357.088 11.904 357.451 11.232C357.813 10.5493 358.309 10.0213 358.939 9.648C359.579 9.27467 360.293 9.088 361.083 9.088C361.765 9.088 362.4 9.248 362.987 9.568C363.573 9.87733 364.021 10.288 364.331 10.8V6.16H365.803V18H364.331V16.352C364.043 16.8747 363.616 17.3067 363.051 17.648C362.485 17.9787 361.824 18.144 361.067 18.144C360.288 18.144 359.579 17.952 358.939 17.568C358.309 17.184 357.813 16.6453 357.451 15.952C357.088 15.2587 356.907 14.4693 356.907 13.584ZM364.331 13.6C364.331 12.9387 364.197 12.3627 363.931 11.872C363.664 11.3813 363.301 11.008 362.843 10.752C362.395 10.4853 361.899 10.352 361.355 10.352C360.811 10.352 360.315 10.48 359.867 10.736C359.419 10.992 359.061 11.3653 358.795 11.856C358.528 12.3467 358.395 12.9227 358.395 13.584C358.395 14.256 358.528 14.8427 358.795 15.344C359.061 15.8347 359.419 16.2133 359.867 16.48C360.315 16.736 360.811 16.864 361.355 16.864C361.899 16.864 362.395 16.736 362.843 16.48C363.301 16.2133 363.664 15.8347 363.931 15.344C364.197 14.8427 364.331 14.2613 364.331 13.6ZM379.985 10.112C379.985 11.04 379.665 11.8133 379.025 12.432C378.396 13.04 377.43 13.344 376.129 13.344H373.985V18H372.529V6.848H376.129C377.388 6.848 378.342 7.152 378.993 7.76C379.654 8.368 379.985 9.152 379.985 10.112ZM376.129 12.144C376.94 12.144 377.537 11.968 377.921 11.616C378.305 11.264 378.497 10.7627 378.497 10.112C378.497 8.736 377.708 8.048 376.129 8.048H373.985V12.144H376.129ZM383.251 10.656C383.507 10.1547 383.869 9.76533 384.339 9.488C384.819 9.21067 385.4 9.072 386.083 9.072V10.576H385.699C384.067 10.576 383.251 11.4613 383.251 13.232V18H381.795V9.232H383.251V10.656ZM388.515 7.808C388.238 7.808 388.003 7.712 387.811 7.52C387.619 7.328 387.523 7.09333 387.523 6.816C387.523 6.53867 387.619 6.304 387.811 6.112C388.003 5.92 388.238 5.824 388.515 5.824C388.782 5.824 389.006 5.92 389.187 6.112C389.379 6.304 389.475 6.53867 389.475 6.816C389.475 7.09333 389.379 7.328 389.187 7.52C389.006 7.712 388.782 7.808 388.515 7.808ZM389.219 9.232V18H387.763V9.232H389.219ZM394.965 16.656L397.685 9.232H399.237L395.797 18H394.101L390.661 9.232H392.229L394.965 16.656ZM400.126 13.584C400.126 12.688 400.307 11.904 400.67 11.232C401.032 10.5493 401.528 10.0213 402.158 9.648C402.798 9.27467 403.507 9.088 404.286 9.088C405.054 9.088 405.72 9.25333 406.286 9.584C406.851 9.91467 407.272 10.3307 407.55 10.832V9.232H409.022V18H407.55V16.368C407.262 16.88 406.83 17.3067 406.254 17.648C405.688 17.9787 405.027 18.144 404.27 18.144C403.491 18.144 402.787 17.952 402.158 17.568C401.528 17.184 401.032 16.6453 400.67 15.952C400.307 15.2587 400.126 14.4693 400.126 13.584ZM407.55 13.6C407.55 12.9387 407.416 12.3627 407.15 11.872C406.883 11.3813 406.52 11.008 406.062 10.752C405.614 10.4853 405.118 10.352 404.574 10.352C404.03 10.352 403.534 10.48 403.086 10.736C402.638 10.992 402.28 11.3653 402.014 11.856C401.747 12.3467 401.614 12.9227 401.614 13.584C401.614 14.256 401.747 14.8427 402.014 15.344C402.28 15.8347 402.638 16.2133 403.086 16.48C403.534 16.736 404.03 16.864 404.574 16.864C405.118 16.864 405.614 16.736 406.062 16.48C406.52 16.2133 406.883 15.8347 407.15 15.344C407.416 14.8427 407.55 14.2613 407.55 13.6ZM410.938 13.6C410.938 12.6933 411.119 11.904 411.482 11.232C411.845 10.5493 412.346 10.0213 412.986 9.648C413.637 9.27467 414.378 9.088 415.21 9.088C416.287 9.088 417.173 9.34933 417.866 9.872C418.57 10.3947 419.034 11.12 419.258 12.048H417.69C417.541 11.5147 417.247 11.0933 416.81 10.784C416.383 10.4747 415.85 10.32 415.21 10.32C414.378 10.32 413.706 10.608 413.194 11.184C412.682 11.7493 412.426 12.5547 412.426 13.6C412.426 14.656 412.682 15.472 413.194 16.048C413.706 16.624 414.378 16.912 415.21 16.912C415.85 16.912 416.383 16.7627 416.81 16.464C417.237 16.1653 417.53 15.7387 417.69 15.184H419.258C419.023 16.08 418.554 16.8 417.85 17.344C417.146 17.8773 416.266 18.144 415.21 18.144C414.378 18.144 413.637 17.9573 412.986 17.584C412.346 17.2107 411.845 16.6827 411.482 16C411.119 15.3173 410.938 14.5173 410.938 13.6ZM428.753 9.232L423.473 22.128H421.969L423.697 17.904L420.161 9.232H421.777L424.529 16.336L427.249 9.232H428.753ZM441.938 10.112C441.938 11.04 441.618 11.8133 440.978 12.432C440.349 13.04 439.383 13.344 438.082 13.344H435.938V18H434.482V6.848H438.082C439.341 6.848 440.295 7.152 440.946 7.76C441.607 8.368 441.938 9.152 441.938 10.112ZM438.082 12.144C438.893 12.144 439.49 11.968 439.874 11.616C440.258 11.264 440.45 10.7627 440.45 10.112C440.45 8.736 439.661 8.048 438.082 8.048H435.938V12.144H438.082ZM447.572 18.144C446.75 18.144 446.004 17.9573 445.332 17.584C444.67 17.2107 444.148 16.6827 443.764 16C443.39 15.3067 443.204 14.5067 443.204 13.6C443.204 12.704 443.396 11.9147 443.78 11.232C444.174 10.5387 444.708 10.0107 445.38 9.648C446.052 9.27467 446.804 9.088 447.636 9.088C448.468 9.088 449.22 9.27467 449.892 9.648C450.564 10.0107 451.092 10.5333 451.476 11.216C451.87 11.8987 452.068 12.6933 452.068 13.6C452.068 14.5067 451.865 15.3067 451.46 16C451.065 16.6827 450.526 17.2107 449.844 17.584C449.161 17.9573 448.404 18.144 447.572 18.144ZM447.572 16.864C448.094 16.864 448.585 16.7413 449.044 16.496C449.502 16.2507 449.87 15.8827 450.148 15.392C450.436 14.9013 450.58 14.304 450.58 13.6C450.58 12.896 450.441 12.2987 450.164 11.808C449.886 11.3173 449.524 10.9547 449.076 10.72C448.628 10.4747 448.142 10.352 447.62 10.352C447.086 10.352 446.596 10.4747 446.148 10.72C445.71 10.9547 445.358 11.3173 445.092 11.808C444.825 12.2987 444.692 12.896 444.692 13.6C444.692 14.3147 444.82 14.9173 445.076 15.408C445.342 15.8987 445.694 16.2667 446.132 16.512C446.569 16.7467 447.049 16.864 447.572 16.864ZM455.438 6.16V18H453.982V6.16H455.438ZM458.672 7.808C458.394 7.808 458.16 7.712 457.968 7.52C457.776 7.328 457.68 7.09333 457.68 6.816C457.68 6.53867 457.776 6.304 457.968 6.112C458.16 5.92 458.394 5.824 458.672 5.824C458.938 5.824 459.162 5.92 459.344 6.112C459.536 6.304 459.632 6.53867 459.632 6.816C459.632 7.09333 459.536 7.328 459.344 7.52C459.162 7.712 458.938 7.808 458.672 7.808ZM459.376 9.232V18H457.92V9.232H459.376ZM461.313 13.6C461.313 12.6933 461.494 11.904 461.857 11.232C462.22 10.5493 462.721 10.0213 463.361 9.648C464.012 9.27467 464.753 9.088 465.585 9.088C466.662 9.088 467.548 9.34933 468.241 9.872C468.945 10.3947 469.409 11.12 469.633 12.048H468.065C467.916 11.5147 467.622 11.0933 467.185 10.784C466.758 10.4747 466.225 10.32 465.585 10.32C464.753 10.32 464.081 10.608 463.569 11.184C463.057 11.7493 462.801 12.5547 462.801 13.6C462.801 14.656 463.057 15.472 463.569 16.048C464.081 16.624 464.753 16.912 465.585 16.912C466.225 16.912 466.758 16.7627 467.185 16.464C467.612 16.1653 467.905 15.7387 468.065 15.184H469.633C469.398 16.08 468.929 16.8 468.225 17.344C467.521 17.8773 466.641 18.144 465.585 18.144C464.753 18.144 464.012 17.9573 463.361 17.584C462.721 17.2107 462.22 16.6827 461.857 16C461.494 15.3173 461.313 14.5173 461.313 13.6ZM479.128 9.232L473.848 22.128H472.344L474.072 17.904L470.536 9.232H472.152L474.904 16.336L477.624 9.232H479.128Z" fill="white"/>
<circle cx="10" cy="12" r="9.5" stroke="white"/>
</svg>
